<mxfile host="app.diagrams.net" modified="2022-10-01T23:54:58.156Z" agent="5.0 (X11)" etag="ZykJNv6Ys0b7iCPL3zxw" version="20.4.0" type="github">
  <diagram id="XpCFzow_mFgk16ZP4fZQ" name="Page-1">
    <mxGraphModel dx="1240" dy="1703" grid="1" gridSize="10" guides="1" tooltips="1" connect="1" arrows="1" fold="1" page="1" pageScale="1" pageWidth="850" pageHeight="1100" math="0" shadow="0">
      <root>
        <mxCell id="0" />
        <mxCell id="1" parent="0" />
        <mxCell id="qmRgz9lJUut0-xWqPHnc-1" value="master&#xa;cluster&#xa;" style="shape=image;verticalLabelPosition=bottom;labelBackgroundColor=default;verticalAlign=top;aspect=fixed;imageAspect=0;image=data:image/png,iVBORw0KGgoAAAANSUhEUgAAAVAAAAG0CAYAAABkPX9NAAAACXBIWXMAAA7DAAAOwwHHb6hkAAAAGXRFWHRTb2Z0d2FyZQB3d3cuaW5rc2NhcGUub3Jnm+48GgAAIABJREFUeJzt3Xm4JUV98PHvXGYGZhhwZBMFF1BE4oJojAsiICpREXcSoyhqYtxF87rEPS5xfVU0McZojEtcEVQw7uD2CqLgyuqCigjKDsMsDDM3f9S9L+f2Pfferjpdfep0fz/Pc55n+kx3VXVPz+/8qru6axn57AI8F3gBsDZjPZK0kNOANwEnA9NNF76s6QKBXYHnAC8EdsxQviTF+gnwRuB4GgykTQbQWwIvAZ4BrG6wXElqylnA64HP00AgbSKArgaeB7wcM05Jk+EM4B+A745SyKgB9GHA+4E9RixHkto2Dfwn8CLg2pQCUgPoKuDtwLNGKEOSSvAb4BjgW7EbbpNQ2W2BU4AjMHhKmnxrgScB1wGnx2wYG0DvA3wD2DtyO0kq2RTwl8DtgC8BW+psFJNBHg6cSOi+S1JXfRF4PLBhqRXrBtAHA18AthuhUZI0KU4FHgFcv9hKdQLowYSU1sxTUp98GTgS2LzQCksF0H0IF1V3arBRTdkAbGz476o2Aesj25WirXpyWQ1sO+5GjGB7YOW4GzFjR9Ju7jZtGeU8gr0c2GFMdX8MeDILDLpfLIDuRHiO9I4NNeRKwvOoZwJXDHy2EiL8upn11nFTxI8JdpIE8EDg3cCdGyrvVcAbYjeafdRplM9W4KuEawnLR9wJSaprOeFFRlcxehzbAjwkpvJnNFDpt4E/j99vSWrMbsAHCMncKPHsMmD3OhXentCNTq3oeuBvR9ljSWrYg4HfMVoQPb5ORaN03X9Dc9cdJKlJNyOMKBoliD52sQoePELBZwN7NrSjkpTDckKXPjXO/ZpFRmz8KLHQi4FbN7mXkpTRKEH0OcMKPCyxsI3APZvfP0nKZjnwP6TFvD8w5KnMkxILe0me/ZOkrG4G/Ja0uPd3gwXdgjDWKbaQMyjjqQlJSvEg0oY4nUd4gxMQhh2lROH7Z945Scot9XroY2YL+HjCxidm3y1Jym830p5YOm22gNMjN9wK7J99tySpHS8gLQsF4NLIjT7Vwg5JUluWE+aOjw6gq4i7iLoFuGs7+yRJrXkgCQH0DpEbfKKtvZGklt1AZAC9e8TKW4D9WtsVSWpXVACdAtZEFL4BOLfJ1krSpIoNoJKkGVOE+WDqipkGWZI6zQxUkhKZgUpSIjNQSUo0RZjTuy4zUEmaMQWsGHcjJGkSTRE3X7sZqCTNiA2gkqQZZqCSlMhroJKUyAxUkhJ5DVSSEhlAJSmRXXhJSuRNJElKZAYqSYm8BipJicxAJSmRGagkJZoCtolY3wxUkmZMYVCUpCSxAdRgK0kzzEAlKZEBVJISTc18JEmRUjJQM1ZJwi68JCUzA5WkRGagkpTIDFSSEpmBSlIiM1BJSmQGKkmJzEAlKZEZqCQlMgOVpERmoJKUyAAqSYnswktSIjNQSUpkBipJicxAJSmRGagkJVqesI0BNN2fAYcCtwauB74LnDrWFpXrnsBBwO7AtcDXgTPG2qIyLQMOBO4H7ARcDnwZ+Pk4G9Un5wLTEZ/V42nmRNsP+AbDj+c3CCe+gnsDP2D4sfoEsN34mlacw4HzmH+ctgL/QlqC1Hc3EBcPh/4DLPbZvrVd6YYDgWtY/Jh+fWytK8sjgI0sfqw+PLbWleXZwBYWP1ZvHlvrJld0AD0/cgMDaH0rgIuod1wfMqY2lmIVcBVLH6ctwG3G1MZS3JOlg+c0cCPhcpHqiwqg3kTK68HAnjXXPTJnQybAQ4C1NdabAg7J25TiPZt605FvAxyduS295jCmvP48Yt3DsrViMtw1Yt17ZGvFZHhAxLoHZ2uFHMaU2b4R696Bfl/03yti3QOytaJ8K4DbRaz/F5naIcxAc9slYt3l1O/ud1HMdc2YYNs1a4n7oV1L3HmoCFPUu5aiNLtFrn+7HI2YEDeLWHfXbK0o35qEbbyRlElK8DRjrW+HyPV3z9KKyRATGLaLXL9LUkbB3KrxVggwA81tZeT6O2ZpxWSI3fe+ZqGxP8oQl90rgtdA8zKA1hebUfY1gKZk3gbQTOzC57Uicv0+n+irItfv67FKeZS1r8cqO4cx5RUbQPucgcYO4errM/EpSU9fj1V2XgPNK7YLH5uFdcUy4s/DvgaFlP+v2zTeCgFeA80tNgONDbhdkfIAQZ9/bGL1+QGNrOzC57Oc+GyhrwE0JUMygNZnAM3EDDSf2OwTDKAx7MLXZxc+EwNoPinB0ABanxlofWagmaT8mnnTqZ6UDHTbxlsxGcxA60sJoCnnomowA80nJSj0NQNNyZD6eqzMQAviTaR8Uo5TX7P7lB+bvl7XSzmv+nqssjMDLYsBNO82XZByjpiBZuJA+nz8YarPAFpfX/e7SGagZenrj1lKhtTXQNLX/S6S10DzSTlOfT22KUGhr91SA2hBzEDL0td/C7vw9fW1l1IkM9B8zEDrM4DW19f9LpIZaFn6+m9hAK2vr/tdJF+onI/jQOvzGmh9fd3vItmFL0tfj60BtL6UdwD09bzKLmUc6HSOhnSQ10DrsydUX0oA9f9sJmagZfHY1tfXY9XXt1AVyV/+fLwGmldfz0O78AUxgJbFY6ulrB53A3STlC6811Pq8RpofX3d7xS7JGzj/9lMzEDL4rGtr6/HardxN0A38ZpbPmagysEAWpAp4tN7/5Pn4w9afX08D1cCt0rYzik9MrELn48ZaF59O1Z3Ad5P2rxZfwV8BNiz0RbJZ+EL09d/C39sFvdy4CzgKYnbLwOOBs4DXkF/n+JqnBloWTy2GrQc+CDwRprphm8PvAH4DmmXAlThL5EmVdd/bNYAnwYeOuTvtgCnA18FvgdcAlwObAV2Jdxo+gvgcOBA5nf77wOcNlP2ORna3isbCTeS6n5uPZ5mTpy9iDuu08D5Y2np+N2X+GN14lha2o6VwNeYv8+bCNcy94koaxfgtcBVQ8r7E3DnphrdETcQdx5GB9DbtLYrk80AWl9KAP3cWFqa3xTwCebv71nAviOUuwtw0pBy/wDcdoRyuyZ7APVg12MArc8AepO3M39fP0za3feqZcCLCV39wfJ/CuzQQPldYAAthAG0vpQA+vmxtDSvpzF/Pz9G8+OD/2FIPf/ZcB2TygBaCANofSkB9AtjaWk+dwDWMXcfTyPfjd53Mv+YHpmprkkSFUAdxqQSeE7BWwnDjGatJ4z7vDFTfS8HflX57jiccymKjw5qUnUp6N4eeFTlu+OACzLWuQF4buW72wGPyFhn55iBSuP318z9f7UeeFcL9X4ZOLvy3VEt1NsZZqCaVF36IT+0snwiYYxmG/6jsvxnLdXbCWagKkGfz6llwL0q353cYv0nVJbvSL//PaKYgWpSdeU/+W7AjpXvvtFi/RcBlw4sr6KZMae94KycmlRdOQ+rj0ZfCVzWchvOrCxv13L9E8sMVBqv7SvLF46hDZdUls1Aa/IaqErQ5/eBrqwsbx5DG9ZXln1LW01moNJ4bagsjyN4VbPgG8bQholkBqpJ1ZXz8JrK8i3H0IbdK8ubxtCGiWQGKo3XbyrLewA3b7kN+1eWN7Zc/8QygKoEfb4Geh3w+8p392mx/r2YO9ncFdiFr81J5aTxO72y/Nct1l19dPO8FuueeM4Lr0nVpfPwS5XlR9NON36K8A7SQT9uod7O8CaSJlWXzsMTmDuUaAfC6+Zyewrh0c1BH2ih3s7wGqhK0KVgmOJq5r996XnAfhnr3IUwXfKgUzADjWIGqknVtfPwn5k7I8G2hHmf1maoa4owu+fgkKn1wDMz1NVpZqBSGa4H/oa5Xfk7Ap+l2QnfpoAPMn+++ZcCv2iwnt7YRNxcNDm7FV3inEj1PYD4Y/X1sbQ0v0cQpvEY3Nef0Mx04msJ7xqtHsv/aqDsroieVC52AwNoPQbQ+gygc/098/f3MkIXO3XOoiMJLyqplvs15j+P32fZA6hvrK7HAFqfAXS+1zJ8v38CPB5YUaOMKeAI4NsLlHUqsLrhdk+6qHjoW1ekMr0WuAp4B3PvVdwN+DRhyo+TCXfOzye8FHklsAbYFziEEDwX6vp/Dngi89/EpEhmoHmYgdZnBrqwxxHe2BR7fBb63Ai8HqcvXojzwksdcjwhmzy3gbLOAA4EXgVsaaC83nMYk1S+7xPemPSCxO0vA55MeEnJ95tqlBxIL02KzYTrlim+DXyUmbvGao5vY5Imx1WJ221ttBX6/3wbUx77AB9K2G5vwt3XOkNU1D/r8NplUbwG2qzlwIsJY/UOTtz+NcAPgAMabJe6YRq4NnE7ZeA10ObsC5wGvBVYNWJZ+xMu9r8OZ0jUXNVJ6OowgGbif85mPBF4H2EQ8zAbCVnlLwh3RCG8bWdv4B7MnVJh1grCcJODgL8iDJyWUqY99hpoRrED6asTUPXdiwgnaPU4bQW+ADwS2G6JMu4MvAm4fEg504RpFqozJ3aJA+nru4D4Y/XfY2npZMr+LLwB9CbPZ/gx+g5wz4TyVhOugV4/pMyfAzcbvclFMoDW93Pij9XHxtLSyRQdQDdHbnD31nalbIcy/9jdSHiv4qg35/YBfsT8Y/9ZunkN2gBa31nEH6uPjqWlkyn7o5wKE359grnXkDcRZjh8C6Nfc/oFcD/gfyrfPwZ4xohla7KlTDk83XgrBDiMKdXrgFsMLE8TZjc8ocE6NhAC5qmV798E7NpgPZosBtCCOIwp3u2ZP3fMO4GPZ6hrE/AE4JKB725OGGyvfjKAFsQMNN7zmdt1/yXwyoz1/ZFwXXXQU4HdMtapchlAC2IGGmdb4JjKd/9E2uDmGP8NnDOwvApnUOwrA2hBzEDjHAzsOLD8e8LNpNy2Ah+ofPeEFupVeQygBTEDjXN4ZfkztPdyh+Mry3ciDMBXv6Q8iWQAzcQMNE51DOzXWqz7IsL11kEHtli/ymAGWhAz0DjV+aDObLn+H1eW79Vy/Ro/M9CCpLxQuc//GDsP/HkT7b/g41eV5YVmXFR3pTyk0ef/s1mlvFC5r93+Vcx90fE1Y2jD5ZXlnYeupS4zgBbEDLS+GyvLK8fQhmr3LaU7p8lmAC2IU3rUtxlYP7C8I+2/T3XbyvJlQ9dSl6WM+jCAZuKkcnF+P/DnKWC/luuvvni5ibnCNVnMQAviXfg4P60s37fl+u9aWXaO7/4xgBbEABrnjMryY1usexVzA/Zm4Fst1q8yGEAL0tc76qlOriwfBtyupbofx9xroF8FrmipbpXDa6AFMQONcy5w9sDyNoQpOHJbBryg8t2HW6hX5TEDLYgZaLx3V5aPJrw9PqenMXeOpV/R7MubNTkMoAUxA433UeDigeVtZr5bm6m+fYC3Vb57M+29xERlsQtfEDPQeBuAF1e+25twfXR1w3XtApxEeAv9rLOADzVcjyaHGWhBzEDTfBL4UuW7A4GvEIJeE/YCvgvsO/DdjcCzMfvsMwNoQcxA00wDTwIurHx/f8JQp4NHLP9RhDGe+1a+fzWO/ew7A2hBzEDTXQkcAVxa+X4vwkyaHyJMQBfjDoTJ6U5k/sybnyVMmax+M4AWxAx0NOcAhzL3EU8IPzLHAOcRro0+EdhjgTJ2Ah5PCJDnMnyqjq8Af8Po881r8nkTqSBtvwyji84D7kG4E1+d8mM58PCZD4Rs9Q+E7HUtYW75Wy9R/nuBY/HNSwrMQAuynPguuV34+S4DHkaY8vgNwPYLrLf7zKdumc8FPj1y69QlBtCC2IVvzlbgXYQXfow6V9LJhPmXDJ6qSgmgXvrJxJtIzbuQ0JWvPnpZ16uBRxC6+lKVQ9gKYgaaxzRhAHyKC5psiDonpTtuFz4TA2h5zDC0mJRgaBc+E7vw5TGAqmlmoJmYgZbHbEGLsQtfEOdEKo8ZqBZjAC2IXfjyGEDVNANoJnbhy2MXXosxAy2IGWh5zEDVNANoJmag5TGAajFmoAUxAy2PXXgtxgBaEDPQ8piBqmkG0EzMQMtjBqrFmIEWxAy0PGagWowBtCBmoOUxA9ViDKAFMQMtT98y0AOBf0/Y7gHAm4GVzTankwygmZiBlqcvAXQ1IQB+G7hTwvYrgJcCPyBMqaKFGUAzMYCWpw9d+EMIc0m9lNF7QXcDTgNe2UBZk8ApPQripHLl6XIAXUZ44/6rgG0WWOdC4Ezg58DGme+2Be5CyDSHTRW9Eng9cH/C7KVXNtfkTjCAZrSVcIDrfh4ynmZOnL2IO66zn5Tu7CSYAt7P8H2+BvgXwjxQS7kT8A7gigXK+jFhquiuOob4c+pF42johLqBuGNrAM0kNYDuM47GtuC9DN/fT1F/ptJB2wOvA9YPKfMMYNXoTS7SMcSfUy8cR0MnlAG0EKkBdFgXddL9HfP3cwPwuAbK3o/Q3a+W/4EGyi7RU4g/p44dS0snU1QA9SZSebp2F35f4D2V764DHgYc30D55wL3Ab5Z+f7pNBOgSzPd0jaqoQ93LSdN124iHUe4CTRrC/BI4NQG61gHPJwwpGnQO4E1DdYzqQygmZiBlqdLGehhwOGV795As8Fz1nrgKODqge/2BP5PhrrGyQy0IGag5elSAK3evDidMNwol98MKf+5hBtOXWEALUjKpHJmoHl1pQu/J/DQyncvI/8PxL8Clw4s7ww8KXOdpTOAZmIGWp6uZKAPZ+75dRrwrRbq3QR8uPLdE1qoty1moAXxGmh5upKBVoe7faLFuk+oLB8E7NZi/aUxgGZiBlqermSg+1eWv9Ji3WcB1w4sTwH3brH+nMxAC2IGWp4uBNDtCA8SzFoH/LLF+m8Ezq58d68W6y+NATQTM9DydKELf3Pmnlt/oP39qgbsPVuuvyRdOKeKZAZani5koDtUlq8fQxuuqCzvPIY25GAXviApAdR/jLy6EEA3V5bH8TRQtQ2bxtCGHFISGDPQTMxAy9OFk/3ayvLutH/erK4sX9Zy/bmYgRbEa6BlmX0z1qS7krlBdAfgDi23oXrN85yW6y9JF86pIpmBlqUL2SeE/7DVu+AHtdyGu1WWT2+5/pIYQDMxgJalC9c/Z1UD1lEt1r03c4dR/Qn4SYv152QXviB24cvSlQwU4OTK8mG097LooyvLnyGMDe2rLp1XRTEDLUuXMtDvAJcMLC8nzJyZ22rg7yvffaiFektmBpqJGWhZuhRANwP/VvnuyeS/Fvpq4JYDy98gzPLZZ2agmZiBlqVrJ/q/MfcFx1PAB4G1meo7hPkzUL4xU13j4jXQgpiBlqVLGSjA5cBrKt/tQ7gmubLhuvYDPgusGPjuePK8/X7SGEAzMQMtS9cCKITpjL9X+e5BwBdo7k3x9yVccx2cD/4qnA99lgE0EzPQsnStCw/h7vfjmfuWeAhzJZ0G3HmEsqcIQfIU5j/r/rfARSOU3SVdPK+KYAAtSxczUAhvYzqC8ITSoLsCPwTezNzssY4HEbLO/0t4fd6gNzL/pcp9ZgaaUe1J5Gc+jxlPMyfOXsQf29+OpaXtuTshEx2279cB/0WYCmRYMF0FHAi8lvBY5kLH8N0Z21+Co/D/bE43EHds/cfIJCWA/nosLW3XLQld7sWOw1ZC9/vHwBnAhSx9Ym8Gjm1xP8YlJYA+eiwtnUxRAXR5QgXeRMqnq134QZcADyZMefw6QmZZtYzwMpC6L0E+F3ga/X7efTFeA83Ea6Bl6cuJvgV4O+GFH6PM1LkFeCtwDwyei/EaaCYOY8on5aTtQwY66JfAoYSnh1I8EXgpsLGxFnWTATQTM9Cy9C2AQvjPnZqFXthkQzqsLz2b1hlAy9LnNwalqE7boeHMQDOxC1+WPmago7hh3A0Yg5RgaAaaiRloPl4Dzc8MtB4z0EwMoGUxgMYxgNZjAM3ELnxZDKBx+tiFT2EXPhMz0LIYQOOYgdZjBpqJGWg+XgPNr48BNOW8MoBmYgZaFgNoHLvw9diFz8QMtCwG0Dh9zEBTmIFmYgaaj134/HzwoB4DaCZmoGUxgNZ3I3ZN6zKAZmIGWhYDaH197b77JFJBzEDzsQuflzeQ6jMDzcQMtCwG0Pr6moGmMIBmYgZaFgNofQbQ+uzCZ2IGmo9d+LzswtdnBpqJGWhZDKD19TUDTckmDaCZmIGWxQBaX18DaMo54nmViQE0H7vwefW1C59yjvjAQSZ24cviiV5fXzPQlC68P8yZmIGWxRO9vr4GUDPQgpiB5uMTI3n1NYCmBEMDaCYG0LL0NQNN+bHp6zVQu/AFsQtfFjOF+jaNuwFjkhIM+5qtZ2cGmk9KptDXLnxKBtrXoOAwpoKYgeaTctL2tVuaEkDNQOuzZ5OJATSflJPWAFpfX4+VAbQgBtB8Uk7avmZVZqD1GUAL4jXQfMxA6zMDrc8AWhAz0HxSbnL0NatKYQCtzwCaiRloPluIz6z6GhTswtfnONCCmIHmFfvL39egYBe+vthgmPJDrprMQPOKDaB9DQoG0PpiA6jd94zMQPMyA63HAFqfAbQgZqB5mYHWYwCtL6ULr0wMoHkZQOtJ2e++ZutmoAWxC5+XAbSeDQnbXNd4KyZD7DllAM3IDDQvr4HWYwCtb33k+n39UW6FGWheZqD1bEzY5trGWzEZ1hN3zXhdrobIDDS36yPXNwOtr68Z6FbislADaEYpAdRBufVdHbn+VVlaUb6NxJ9X1+RoyISI+WHu6w9NK8xA84r9Tx4bcLtiK/HZd58DQ0xW2efjlJ0BNK+YgHgd/b0GCnBl5Pp9DgyXRKzb12vFrfAmUl6/iVj38lyNmBC/i1j3GuKvL3dJzLG6OFsrZAaa2fkR6/4qWysmw9kR6/b9WMUE0IuytUJmoJl9h/qvHzs3Z0MmwJcj1j0zWysmw6kR616YrRUCwt3PmM+zx9PMifVJ6h3Xw8fVwEJsA5yOx6qOlYQf3KWO0/XA9mNq46S6gbh4aADNbA1wMosf049hbwBgN+A0Fj9W7xpb68qyN4sH0RuB546tdZMrewB9Tmu70h3LgKOB7xNO7GnC2MevA0eOsV0lWkH4j/9TwuWP2UzqJODgMbarRKuBlwMXcNP/z2sIvZ57jLFdk8wAWrjtgJ0IgUKLWw3cnNC91+LWEI6VPZnRRAXQ5WNqZJ9tJO3Z7z5aT/zLM/rKRzbHwGFMkpTIdF+SEhlAJSmRXXhJSmQGKkmJzEAlKZEZqCQlMgOVpERmoJKUyAxUkhKZgUpSIjNQSUpkBipJiQygkpTILrwkJTIDlaREZqCSlMgMVJISmYFKUiIzUElKZAYqSYnMQCUpkRmoJCUyA5WkRGagkpTIDFSSEhlAJSmRXXhJSmQGKkmJzEAlKZEZqCQlMgOVpEQpAXS7xlshSeO3koSYOB35+TWwvJn2SlIxnk58PIzeYBp4Qks7JElt2AY4n5YC6E/wWqik7jiKtFiYtNE08NBWdkuS8vshLQfQb7axV5KU2UNJj4PJG04DB7ewc5KUyzLgNMYUQL+P10IlTa5HM1oMHGnj6ZkGSNKkWQ6czZgD6LnAtpl3VJKa9lJGj38jFzANvCXzjkpSk/YB1jM/ll095LvGAugNwLuHfH8jcGDW3ZWkZqxk+I2jM4AXDfm+0QA6BXxsyN/9ElibcaclqQnvYX78+gWwG/DMIX/XaAAFWAGcPOTvTyFEd0kq0VOZH7f+CNxh5u+fPeTvGw+gAKuAbw1Z5+M4tElSeY4ANjM3Xl0P3HdgnefRUgCF0GX/0ZD13oZBVFI5DmP+TaPNwMMq6z2fFgMowC0I1w+q636A8IYTSRqnxwEbmRuftgBPGbLusbQcQAFuTbiJVF3/eGB14k5L0qheSBglNBiXtgLPWGD97HfhF7InwzPRc4H9I3dakkaxBvgk8+PRVuC5i2z34iHbtBJAIWSiFwzZbj3wLLwuKim/QxiezG0i3IVfzEuGbNdaAAXYiTCcadj2pwP3qVGGJMXaBfgPQpZZjT1XEALrUl42ZNtWAyiEcaLvW6CMrYSB+PvVLEuSFrMGeDVwLcNjzo+AO9Ys6x8XKKPVADrrScCVC5S1Ffgq8Aicn15SvJsDrwIuY3iM2Qy8kbiHe16xQFljCaAAt2L4U0uDn0sJw54eBWyfUIek/tgdeCsLZ5yzWWfK5cJXLVLmvM+ymT/UtZn0RzUfCbwBuMsS690AXANcB1xFGIJw3cDfX0PIXgE2EMZ3DXMtYazXMJuBdYu0YbFtq+1pwnUz5TZlqf3rqpvR3d7MKmC7cTcikynCv10dBwDHsPCxuIgQBD/KTXEixmuA18ZskDsDHTQFHM3wO2R+/Pjxk/r5I2EI0ipG808x9bb9a72V8MuwL3Ak4a68JKW6jHDnfC/CI+QbRiwvKiaOq7uzFTiJ8BD/Qdx0jVSS6vgTIXDejvBC9/UNlRsVE5c3VOkovjvz2Z9wbcNHPyUt5ifABwkD45sWnVTGXGcY9RqoJJXsLRR8DVSSSjYR10AlqUQGUElKZACVpEQGUElKFPXKTQOoJN3EDFSSEhlAJSmRAVSSEhlAJSmRAVSSEhlAJSmRAVSSEhlAJSmRAVSSEhlAJSmRAVSSEhlAJSmRAVSSEmV9G1NU4ZI0YbJmoAZQSV1mAJWkRAZQSUpkAJWkRFExcXlCBcsIk8qP03Lg/sC9gX2BPYC1M591wBnAccB542qgpIkUPTJpOvIzzqFPtwXeCVwxpF3Vz0bgWeNppqQJ9TXi4mF0AN2mtV25yQrgFcCGhPa+egztlTSZvkHmAJrS7R/FWuJ/Faqft7XcZkmT6RQ6FEBXAd9LaOOwzxtabLekyfQtMgfQla3tCnwkoX2LfY5tse2SJs+3yRxAt21pR/4yoW1LfbYAh7TUfkmT57tkDqDbtbQjpye0rc7n18D2Le2DpMkSdckwZUhSG4Pp9yeM8VzM74HXEDLKuwIPIlzn/O0S2+0FPHbE9knqpuzjQFc31dJFvHyR+rcA/0y4wTTMCuA5wLWLlHFixrZLmlxnkLkL30b399ML1L0ROKJmGbcBfrZAOWc13F5J3fBDMgfQHVr4yUIuAAAE/ElEQVTYidOG1LsVeHRkObsC5wwp6zdNNVRSp5xF5mugbTyJNKxdHye+630Z8BRCt3/Q9SmNktR52af0aGMc6OVDvnt9Ylk/AL5Q+e7ixLIkdVv2ANrGk0jVtyj9CDh/hPI+U1k+c4SyJHVX9gC6ImGbWF+vLI960+dXS5QvSZB5UjloJwM9hXD9ctYlI5a3aeDPfwS+OWJ5krqpExnoJuDdDdZ5x4E/v5f5N5UkCVoYSH+Xplq6hDWExy6ngc+NWNb7Zsq5AthpxLIkddcvyDwO9IDWdgUOBTYT7sqnPoO/Izc9lfSMhtolqZt+ReYAeq/WdiV4xky9T03c/riZ7U/ASfEkLe5CMgfQ+7W2Kzc5FvgTcKvI7Q4iXO/8f4RMVJIW81syB9CDW9uVuZ5MmK+k7g2lWwJ/AD5GuJ4qSUu5iMwB9EGt7cp8DyC8aWkpK4D3EF7KLEl1XUzmAHpka7uSbg3jnX5Z0mS6hIh4mDIofhK6w+vG3QBJEyn7QPo2XmcnSeOQPYBOQgYqSSnMQCUpUfYA6oyWkrrKDFSSEmUPoDdL2EaSJkH294HeMmEbSZoEUXO+pQTQPRK2kaRJEP3CodgnkTYDqxtqrCSVYg1wIxHxcIr4+YaWA/duqMGSVIqXkjBt+/OJz0I/3Ex7JakIewDXEx8L2YUwB1HMRuuJfzenJJXqw8QHz2tnNz4hYeOP5N8nScruAMKL12Nj4JtmC3hkwsZbGd/LlSWpCVPAacTHv3XArrOFrCDMlx5byEXAznn3T5KyeR7xcW8aeHu1oNclFnQyCXeuJGnMDgA2EB/z1gO7Vwu7BbAxobBp4F/z7J8kZbE78GvS4t1xCxX6gcQCp4HXNLt/kpTFzsDPSItz61hkBNLuwDWJBU8Db2lyLyWpYXsB55Ae4161VAX/OELh08CHgO0a2FFJatJDSbtZPvu5iBqPsW8LnDdCJdPADwiRXpLGbWfg3wlDL1Nj2lZCAK7lANJvKM1+rgdeBqxM3GlJGsVawvPtVzJaLJsG3hNb+QsaqHSaMFH9KwmD7u8G3BonppOUxzbAAwkZ53U0E8N+DKwaVtli775bBnwSOGrEHVrKNYT0+EbCDkMYm7VxyDqDBtcftJ7wbH/V1YSDMUoZVVfVWGepuhZSPQZLuW6mjlzWEV5lmNvmmbpGtYLu/FBvT3M9uVWk3aO4+QLfT7HwLBXLWXgKoMX+fbZl7rXG1TPfwdxjsWamnB0I2ebsZ1uacynh7XO/G/aXS708dDvgK8ADGmyQJE2CDcAhwBkLrbDUG+k3Ep6T/3lzbZKk4m0AHsUiwRPqTelxNXAY8KMGGiVJpdsEPB746lIr1p0T6U/AocB3RmiUJJXuKsJwpS/WWTnmJSCbgE8RxnfeNb5dklS0XxDu4J9Zd4PYtyhtJrx8+XLgQQnbS1KJTgKOAH4fs1HKtMYQ3r50EOGBfEmaVOuBZwJHEgbcRxklg7yY8Pam9cD9COOxJGlSfBF4NDVuFi0kehL5BdwGeDHwdBYYsS9JhfgZIV59ZdSCmgqgs24BHEsIpLsusa4ktWWakGm+A/ga859KTNJ0AJ21LfBYwrWFgzLVIUkL2US4q34BcArweSJvENWRK4AOugshkB4N7NhCfZLm20h4uiZGyvsPhr1zYjFbGJhffcDgux2unVkP5r4X4+qZv6t+LiPco6m+P6Nx/wvXLYnNdhfIgwAAAABJRU5ErkJggg==;fontFamily=Courier New;fontStyle=1" vertex="1" parent="1">
          <mxGeometry x="700" y="220" width="61.66" height="80" as="geometry" />
        </mxCell>
        <mxCell id="qmRgz9lJUut0-xWqPHnc-19" style="edgeStyle=orthogonalEdgeStyle;rounded=0;orthogonalLoop=1;jettySize=auto;html=1;entryX=0.5;entryY=0;entryDx=0;entryDy=0;fontFamily=Courier New;fillColor=#0050ef;strokeColor=#001DBC;strokeWidth=4;" edge="1" parent="1" source="qmRgz9lJUut0-xWqPHnc-2" target="qmRgz9lJUut0-xWqPHnc-1">
          <mxGeometry relative="1" as="geometry">
            <Array as="points">
              <mxPoint x="731" y="195" />
            </Array>
          </mxGeometry>
        </mxCell>
        <mxCell id="qmRgz9lJUut0-xWqPHnc-21" style="edgeStyle=orthogonalEdgeStyle;rounded=0;orthogonalLoop=1;jettySize=auto;html=1;entryX=0;entryY=0.5;entryDx=0;entryDy=0;strokeWidth=4;fontFamily=Courier New;startArrow=classic;startFill=1;endArrow=classic;endFill=1;fillColor=#0050ef;strokeColor=#001DBC;" edge="1" parent="1" source="qmRgz9lJUut0-xWqPHnc-5" target="qmRgz9lJUut0-xWqPHnc-1">
          <mxGeometry relative="1" as="geometry" />
        </mxCell>
        <mxCell id="qmRgz9lJUut0-xWqPHnc-27" style="edgeStyle=orthogonalEdgeStyle;rounded=0;orthogonalLoop=1;jettySize=auto;html=1;entryX=0;entryY=0.5;entryDx=0;entryDy=0;strokeWidth=4;fontFamily=Courier New;startArrow=none;startFill=0;endArrow=classic;endFill=1;" edge="1" parent="1" source="qmRgz9lJUut0-xWqPHnc-9" target="qmRgz9lJUut0-xWqPHnc-11">
          <mxGeometry relative="1" as="geometry" />
        </mxCell>
        <mxCell id="qmRgz9lJUut0-xWqPHnc-9" value="USER" style="shape=image;verticalLabelPosition=bottom;labelBackgroundColor=default;verticalAlign=top;aspect=fixed;imageAspect=0;image=data:image/png,iVBORw0KGgoAAAANSUhEUgAAAY8AAAG1CAYAAAABe3gsAAAACXBIWXMAAA7DAAAOwwHHb6hkAAAAGXRFWHRTb2Z0d2FyZQB3d3cuaW5rc2NhcGUub3Jnm+48GgAAIABJREFUeJzt3XmcJVV58PFf9+wrAwwMDANh32UHEVlEcUFRFJVoVIxLNBqNvmqivsagvjExGjXGfUENUYxb1LggIAjIjiyibLJvww7DMDB79/vH09dphpmePnXr1HLv7/v51KeHpur2U/dW1XNP1TnPGUBqj02BHUYtWwIbA5uM+rkJMDCy/kRg1qjtHwNWAEPAI6N+t2hkeWTUvxcBDwL3AXcB9478eyjLnkktM7DhVaRazAIOBg4BngYcRCSIOq0mEsg9wMKRf9/JExPMwpH/v6ymGKVKmDzUJFOA5wMnjPycXG84XXkYuJsnJpqHR5ZFo352/v0I8HgtkUoFmDzUBJOBtwIfAObWHEudVgJ3ADcBNwBXAlcAVxG32yRJI15EXCyHXda7LAFOA94DLCj2NktSb9gS+AH1X5jbtqwGfgW8CpiQ/K5LUksNAG8m7vPXfSFu+3ItcGTa2y9J7bMAOJ36L7q9tAwBn8BWiKQe9XJi3ETdF9teXU4FZo/705Ckhtsc+B/qv7j2w3IlsPX4PhZJaq7nE2Mc6r6o9tNyGzH6XpJaZw5wMvVfSJcDDxHPBeqOpcrlVmC7DX1IUjccJKiyPQc4iXzjEW4DrgGuJwbS3UU8S3kQeIBIGIs38BqzgZkjyyxgo5F/zwXmjfycC2xGdCneauTfbXIb0RPrlroDUW8yeags04F/A/6a8o+rc4mWzJnEt+o6TCWeJ2w18nMBkVgWAFuM/G4eMKmm+NbFBKJsTB4qwz7AKcBuJb/uGcA/EcmjDQaIBDKfSDLziRbLRiPLnFH/7ixTicQ7JVNMtwPPJEbxS1IjDADvJCrIlnnP/gbguRXuRxNMArYFjiDe0x8Tt9/KeD/vAHaqbE8kaQzziLEFZSaNpcCHiG/jiucwbyae73T73t4F7FJt+JL0REcTpcbLTBynATtWuRMtMhl4HzFxVTfv8T3A/hXHLklMAT5GFOcrK2k8ArwJn7+Nx65EPatu3u8lwAuqDlxS/9qNGMFcZmvjdGCbKneiB8wBfk137/sK4I1VBy6p/5xAfGMtK2k8BrwDWxtFTQF+Qvefw8nAjIpjl9QHNqX8ulRnA39W4T70qinAL+j+87iGuI01s9rwJfWqI4gunmUljZXENLOWDi/PDOACyvuMlhLT3n6VmGxq0+p2RVLbDQL/AKyivIvSTcDBVe5EH9kEuJpyW4edZRXxfOUviTIukrROcyl/7Mb3iIe8ymcrogRJjgTSWR4Fvkz5VQQktdwRxECysi42jwCvrnQP+tsuwH3kTSDDRDftbwM7V7NbkppqkHgWUeZtqktxwF8dDqC8kiYbWlYCXyRum0nqM5sBv6S8C8oQ8EliRLTq8UzKrzU21nI/tjClvnI4cCflXUTuI2YOVP2OpdoEMkxUVXYOdamHDRAD9FZQ3oXjLKL8uJrjGcAiqk0gfyDfJGCSarQZ5fam6ozdGKxyJzRuuwFXUW0CuQWr90o95TDKvU11G/D0SvdARUwDPgo8TnUJ5C5g+yp2TlJebyJaCWVdHH4IbFzpHqhbC4hZGcvsjj3WchPeypRa7fWUV0J9KfCWasNXyQaJLr3vJ4orLiRfAvk9DhCVWun5lJc4rgaeUm34qsgC4Hjg34HrKDeB/BLrmUmtsgPwEOVcAL4KTK82fNVoH+DjlNdb65PVhi+pqBmU08tmEfDnFceu5pgDfJCoa9XtsXRCxbFLKuBkuj/ZL8YeMwrbAWfS3fG0BLvwSo32Kro7yYeIWxaTqg5cjTZAtEKGKH5s/RZL10iNtD1Rzbboyf0w8LzKo1ab/AXdlT751+pDljSWiXQ3q9ydwN6VR602eiHFxw2txsGlUqN8mOKJ42pgy+pDVou9huLdwK8h5mCXVLN9KV7o8E5g6+pDVg/4AMW/sPxzDfFKGmUicBnFTuBHiD79UhEDRKmaIsfeSuDA6kOW1HEixU7eVcBRNcSr3jIHuIFix+BV2PtKqsVewHKKnbjvryFe9aaDKT6N8UdqiFfqa4PAhRQ7YX+Gc3CoXP9K8dtX+9cQr9S33k6xk/UWLKeu8k0hZhIsckxegYNSpUrMp9hgwNXAoTXEq/5wAMXHf5xYQ7xS3/kBxU7Qj9cRrPrKRyl+++ppNcQr9Y3nUezkvAaYWkO86i+TKV7R+SZgVvUhS71vOvHMwoeSarJubl+dVEO8Us/7EMVOyE/XEKv62z9R7FgdBo6rIV6pZ20GLCb9RLwb2KiGeNXfurl99RCWzJFK8x8UOxGdCVB12Yfi5dtPqyFeqedsT7GR5GfVEaw0StHxSMPAy2qIV+opXyL9xBsCnlpHsNIoA8CPKZY8bgImVB+y1BtmAo+SfuL9pI5gpXXYBLidYgnkmBrilXrCsaSfcKuBp9QRrLQeh1Gs++5P6whW6gUfI/2EO6OWSKWxvYv0Y3k5UfZdUqLvkn7CHV9LpNLYBoDvk348v7KOYKW2+wVpJ9pDOD+0mmtLYAlpx/QptUSqMTmnQ/OlDvC7hGjqS000Ffhj4jbPyBCHumTyaL7UuTdWZYlC6s4bgTuBm4F9E7fdEti59IikHncPaU38c+sJU1qnQeBrFOumO3p5XdWBa2y2PJovteWxLEsUUjH/F3hDCa+zTwmvIfWNmaR/Q/tOLZFKT7YVxUuzr738uuLYtQG2PJqtyFzjd5cehVTMgcDEkl5r95JeRyUxeTTb3ALb3Fh6FFIxwyW+1mbEZGhqCJNHs21TYJsbSo9CKuahEl9rAFhQ4uupSyaPZityslxTehRSMQ+U/HpFWuLKxOTRbKktj/uAu3IEIhVwC1GksyyTS3wtdcnk0WypLY8rs0QhFbMMuK3E1/N61SB+GM2WOo/zVVmikIq7rsTXWljia6lLJo9mS71tdW2WKKTiri/pdRYDt5b0WiqByaO5JgDzE7fxYbmapqyu41/B6gnSuGxF+ijc1Aq8Um4voPvR5b8kqvFKGoeDSTvB7qknTGlMe1IsYSwk5vF4CdEKlzROLyftZLuinjClMc3C+mw9yWcezZXaTdeWh5roUeDhxG1sabSAyaO5UntaWRBRTZU60twaVi1g8mguWx7qFQ8mrm/yaAGTR3OlJo97s0QhdS+1QOKMLFGoVCaP5kq9bVVmBVOpTKktD5NHC5g8mmkiMC9xm8U5ApFK4G2rHmTyaKaNSe9xYvJQU6X2trLl0QImj2YqMv3sI6VHIZXjscT1bXm0gMmjmeYU2MaWh5rq8cT1pxMzB6rBTB7NVKTlYfJQU6W2PAaxllXjmTyaqUiBwyWlRyGVIzV5gM89Gs/k0UxFWh7LS49CKkfqbSvwuUfjmTyaKfWZx2rKnStaKlORVrHJo+FMHs2UeuKsyBKFVI4ix+fk0qNQqUwezZQ6xsPkoSYr0iqeUnoUKpXJo5kmJq7v8w41mcmjB5k8mik1edjyUJOtKrCNt60azuTRTKnJw4flarIiycOWR8OZPJopNXlITeaXmx5k8mim1AfmlnJQkw0V2Ga49ChUKpNHM6WebCYPNVmROcmLJBxVyOTRTEvrDkAqUZHbsCaPhjN5NJPJQ72kSMvD21YNZ/JoptRaQN62UpMVSR7LSo9CpTJ5NFNqy8M+8WqyIretrBLdcCaPZkpNHs59oCYrMmajSBl3Vcjk0UypyWNaliikchSZm8OWR8OZPJppUeL6kyh2X1mqQpHy6kXmAFGFTB7NdG+Bbbx1paZKbXmsAB7NEYjKY/JopvsKbOOtKzVV6rH5AHbVbTyTRzMVaXnMKj0KqRyp0yoX+fKkipk8mulx0h8YbpojEKkEmyeub/JoAZNHc6W2PjbJEoXUvbmJ69+fJQqVyuTRXKnfvmx5qKk2S1z/1hxBqFwmj+a6PXF9k4eaKvW21W1ZolCpTB7NdWPi+qknqFSV7RLXvyVLFCqVyaO5UpPHjlmikLozi/RW8a0Z4lDJTB7NdUPi+rtkiULqzvaJ668i/ZatamDyaK7UlsdOWJpdzZOaPG4kRpir4UwezXUvsDhh/VnAgkyxSEXtmbj+1VmiUOlMHs2W2vo4NEsUUnF7J65/TZYoVDqTR7P9IXH9I7JEIRW3T+L6tjxawuTRbFckrm/yUJPMJL2b7u9zBCL1m8OJ6qLjXYaAebVEKj3ZkaQdv4vxC21r+EE125VEQhivASLhSE2Q+gzuMtKOd9XI5NFsi4GbErfx1pWa4umJ6/82SxTKwuTRfD73UBsNAgcnbnNZjkCUh8mj+S5PXH8PYIscgUgJngJslLjNxTkCUR4mj+a7IHH9AeDZOQKREjwvcf27sCBiq5g8mu9iYmbBFCYP1S01efwmSxRSnzuLtC6P92CdK9VnFrCctGP2b2qJVIXZ8miHcxLXnwfslSMQaRyOAiYnbmPLo2VMHu1wdoFtnlN2ENI4pd6yWkR6KR5J4zAFWErabYDTa4lUismcUo7Vn9QSpdQnzibthFwKTKsjUPW13Uk7ToeBd9YSqbribav2OCtx/anAYTkCkcZwdIFtfl16FMrO5NEepxXY5rmlRyGNLfV5x4NYSVfKagJxoqXcDvCkVJVmAMtIO0Z/WEuk6potj/ZYTXrzfg9gqwyxSOvyLKJzR4qzM8ShCpg82uWMxPUtVaIqHVNgm9RneZIK2Jb0nizfqSNQ9Z0B4A7Sjs17sRKCVJkbSDtBH8AWpvLbj/QvNt+tJVKVwotKuzwD2DRxm02xVInye36BbfYhfY5zSYneQHqxuc7yVzXEq/6SWryzsywE9q0hXqnnDQCfoNiJ2Vm+XHnU6ieDRH2qosfnYqKYoqSSTABOorvEMYxzQyuvXej+GF2KCUQqzUfo/qQcJgrVSbk8k3KO0yXADhXHLvWc7YEVlHNSXlRx7OovO1HOcToM/KLi2KWe8zbKOyHfUXHs6j+/oJxjdQjYuuLYpZ7ydco5Ga8ifVY3KdUepM85s77lzRXHrgIc59FcG5XwGvcBxxG3v6Scria6hA+V8FqO/WgBk0dzdTuR0y3EoMIbuw9FGpdvAScQlXW7sWUJsSgzk0dzPVpwu1XAV4lyEdeWF440Lt8Gngr8povXWFVSLFJf+jLpDxr/i+j5IjXBkcCvSH/m8R91BCv1io+TdsK9t54wpQ36CWnH8kfqCVMpvG3VXA8mrr88SxRS91I7f9yaIwiVy+TRXDcnrr9/liik7u2ZuP5NWaJQqUwezZXaS8rkoSaaT/o0AqlfnCSNMou0+8SrgZm1RCqt33NJO44fwtkFW8GWR3M9SkzTOV6DRPdcqUmemrj+ZUQSUcOZPJrtusT1D88ShVTcIYnrX5olCpXO5NFsVyaub/JQk0wADk7cxuQhleC1pN0vfgyLIKo59iF9gKAVdVvClkezXZG4/nTsdaXmODRx/fuBO3IEovKZPJrtGtKLzB2RIxCpgKcnrn9JliiUhcmj2VYBf0jc5hkZ4pCKSH1YflmWKJSFyaP5Lkxc/+nAxByBSAm2GVlS/DZHIMrD5NF85yeuPxOfe6h+RxbYxp5WLWLyaL7zCmzzjLKDkBI9M3H9PwL35AhEeZg8mu8u0quMPitDHFKK1ORxdo4glI/Jox1SWx+H0f00tlJROwMLErc5J0cgysfk0Q6pU3pOJb2bpFSWIs87zi09CmVl8miH0wtsc1TpUUjjk3rL6kbgzhyBSIoJclLKPNjtUXUYIB58pxyrX6slUnXFlkd7pLY+9iV9Eh6pW3sD8xK38XlHC5k82uNXiesPkn77QOrWCxPXHwLOyBGIpLAxUa4k5XbAV2qJVP3sItKO0YvqCVPqL+eQdmLehlN6qjpbENMhpxyj/1BLpOqat63a5ceJ629DzKkgVeEFpF9TfpYjEElPtB3pk+t8uJZI1Y9+RNqxeQe2jKXKXEnaCbqhqWwnArNyBaueMJF45jaWTYi5Z1KOzS9lilfSOpxIeutju3W8zhZE//pHiR4vZwO75A1dLfRq4D7WtBTezbpL/r+V9OPS3oBShXYj/SR9/1qv8TJiys+117sX2Db3Dqg1Xk58sVj7OLkE2HWtdS9ex3pjLbfiM1epcqndIRcCU4DJwOc3sO5ZeFIrWqYPsf7j5DHgVSPr7j7GeutbPlLRfkga5S2kn6wfAC4Y57pvr25X1FBfYHzHymeAT41z3c4yBOxQ3a5I6tgYWEp6Ahnv8gA+RO9nm5H+8DtlsRxJD/D2RDs9DPxPxtfflGjdqD+9gbjNmcvnM762pA3Yg/TRvCnL/cR86Oovg8At5DuursEvrVLtfkK+k3wYeFt1u6KGOIa8x9SrkFS7g1h3V8qylqur2xU1xCnkO56uByZUtyuSxvIN8n5TPLy6XVHNphGDRnMdS8dVtyuSNmQu6TO3pSzfrm5XVLPjyHcc/ajC/ZA0TkeS7+H5cmDz6nZFNfoueY6hO4gvOZIa6D3k+9b47gr3Q/WYDiyh/GNnMXBAhfshqYD3k+cB+u+q3AnV4kWUf9w8CBxW5U5IKu4F5Omn76RSve0rlHu8nAPsWOkeSOraFOAvgO8DNxNF7Lq9GHyq0j1QlQaAu+ju+FhBTHt8CvBcnORJ6hmTiLIj+xKlTVIvDvew7nkc1H77k3483E60cucBM6oPWVIdJhHPMVIvGC+oI1hldyLpx8JRtUQqqXYvJf2C8d1aIlVul5Le6vC2lNSnJgJ3k3bRWArMqSNYZbMl6T30rIorq1v2sVXEw80UU4HjM8Si+hxDeiviZzkCkdQe+5B+6+q8WiJVLj8l7fN/nBhQKKnPXUXaxWMI++/3iumkd+M+tZZI1TjetlJq4cMB4NU5AlHljiK9FfGLHIFIap+tiOcfKd8+b8HeNr3gq6TftrTVKelPziT9ImLNonYbJL233U21RKpG8raVAL5VYJvXlh6FqnQQsEXiNj/PEYik9ppN9KJJ+Rb6CPa6abNPkd7aPLqWSCU1WpGJgF5RS6Tq1gBwK3bRlVSCF5KePOx5005Pw89aUkkmAfeTdkFZRZS3ULt8mvTk8cZaIpXUCp8l/aLy97VEqqIGiMKGKZ/xSpyDXNIYipQruR7HfLTJoaR/xqfXEqmkVvkt6ReXw2uJVEV8DW9ZScrgzaRfXP6zlkiVahqwiPRbVpvVEaykdpkJLCbtAvM4sHEdwSrJa0j/YnBaLZGq8RxhrrUtAb6fuM004C8yxKJy/WWBbVKPBUl97GDSv6FeUUukGq9tgdXYy0pSZqnzfAwDB9QSqcbjX0j/PB0YKCnZ35B+sfliLZFqQ6aRPgB0GHhJHcFKarfpwIOkXWyWAJvWEazG9EbSE8fdRNUBaZ18YK71eRw4KXGbGcCbMsSi7rytwDZfI555SFKybYgLSMo31oXAlDqC1TodQXqrYzXxgF2SCitSqv3NtUSqdfkl6Z/fqbVEKqmnHEj6xecu4iGt6lWky7UPyiWV5kLSL0D/p5ZINdqppH9uC/FBuaSSHEf6Reg+YKM6ghUAT6VYq+Pv6ghWUm8aAK4k/UL0yTqCFRBl1FM/rweAWXUEK6l3FWl9rAT2rCPYPldkSuFh4IN1BCuptw0Q9atSL0hWZa3WJOA60j+nR4A5NcQrqQ+8hGLfaE+oI9g+9S6KfUYfrSNYSf1hALicYvfS59UQb7+ZBzxM+uezBCd8kpTZ8yn2zdZ5IfL7PsU+m3+rI1hJ/efnePuqaV5Osc/kISxmKakiOwLLSL9QPQrsXEO8vW5T4B6KJY+31xCvpD72SYpdrC7CEcxlK1J/bJjoleVnIalSs4g5H4pctD5bQ7y96k0U+wyGgaNqiFeSeAPFL1yvriHeXrMXMe9Kkff/WzXEK0lAdN09g2IXr8eAfaoPuWfMpNhgwGHiIbldpyXVahtidHKRi9gdwFbVh9x6A8B/U7zV94rqQ5akJ3s9xS9klxPfojV+H6T4+/2fNcQrSetVdOzHMPAz7PUzXi8hpokt8j7fBMyuPmRJWr/5RBmSognkW8Bg5VG3y77EWJki7+9K4JDqQ5akDTsKWEXxBPKF6kNuje2IWf6KvrcfqjxiSUrwjxS/wA0DnyIeCGuNuRTvWTUMnAdMrDxqSUowSDzD6CaBfA4TSMdMis0h31luA7aoPGpJKmBj4uFsNwnkK/gMZAZwNsXfw0eBvasOWpK6sTfFx390lh8AU6sOvCGmAWdS/L1bDRxbedSSVIJnAyvoLoGcS7Rk+slM4Fd09769t/KoJalErwGG6O5CeC39U8p9LnAJ3b1f36w6aEnK4X10dzEcJqZXfV7VgVfsz4hE2c37dCYwperAJSmXz9F9AlkFfIDefJB+OHAv3b0/F2CpF0k9ZhD4Gt0nkGGikm8vdT99K90/G7ocmFN14JJUhUGiC24ZCeQe4Jhqwy/dHLqrjttZriaelUhSzxoAvkQ5CWQY+C9iDu+2ORy4le73/wairpgk9bwBynkGMroV8mraMSp9DlHDq2hl3NHLbcRDdknqK++l+268o5cLgAMr3YPxGyASXNF539debgS2r3QPJKlBXkrxebjXtQwBPwX2q3InNuAo4LeUt49X4wyMksRhwIOUd3EdJm4LfQ94aoX7MdoA8FzgrDFiLLKcT/+NuJek9doRuJJyL7Sd5VLgL4FZFezHFOAE4HcZ9uNUoliiJGmUacA3yJNAhonbYz8EjqfcRLIR8HLgFLovBrm+5VvA5BJjlrrSht4p6j9vBD5L3oq6Q0QpkEuJVsKDI8tDxJStHbOBCcTI7Y1GLVsS9bZ2Je/zh9VEx4JPZvwbUjKThwCOBF4ILCDmgDiTKIe+osaY9iXGcOxRYwx1exB4BVFht07TgL8FjgaWEjMTfoOYFldSH9qRuBCs6zbJ74l5s+s0Ffg43c2L3tblCup//yFiWFexxqXAv9K/861Ifet4Nnx//o80o9DeIUQsdV/Qq1iGiBH400t557qzBTEQcax4rwYOqCtASdWZTDxPGO/F7O/rCfNJpgMfA5ZT/wU+13Iz8Kyy3rAS/Ijxxb0S+DAwqZ4wJeX2FKL6asoF7ZJaIl2/nYGfU/+FvsxliCjX0oRWXsfOpO/HpcAudQQrKY8JRI+dZaRfEB6uId7xOIbeuJV1GXBEye9NGd5Csf1ZArwZO+NIrbcXcCHFL24PVh/yuE0CXg/cRP1JIHW5BngZzb3Inkh3+/crYIfKo5bUtZnAvxH3o7u5CFxQdeAFtCmJ3EKMdp+Q440o0dvofl8fJ56ZTaw4dkkFvZgN95IZ7/LBimPvxkTgOOA0yil5XtYyRMx+eBztuZDuQ3n7/zvgGZVGLynJHsDplHfSPwrMq3QPyrMD0TvrDupLGJcRz5q2ybyvuVxCue/J93H+EalRNiV663R7i2rt5R+r3ImM9gX+AbiYvC2S64FvAq8jype03aGUP0DzcaJbbxPGsagLTX1Yp/GZBPw18CFgk5Jf+1JiqtRlJb9u3aYDuxFdUbckSrLMJarVzh5ZZoysN2dkm8eIUi2dn4uJMRk3E89ZbiImZ1pU1U5U6HXASZR/rbgD+DuibP5wya8taT0GgD8n5q/O8Q36OmJ0sQRRX2sJeY61c4nnK5IyK3tWunWdzCYOrW0P4ktFjmNuFVGSZbPK9kbqI3sS06vmShrDwJexxITWr1MiJtdzoyUjrz+7qh2SetmOwH8TvXdyJY1FxK0JaTyeTXldwde1LATeRHu6NUuNsgXweeIBbc7Wxo+A+RXtk3rHRsStppy9164FXlLVDkltN5MYG5BrOtPOcjcx17bUjf2Innk5j9WLaGb9L6kRpgDvBO4n74m4mni20emGKnVrIvAe8vXI6iw/JrpZSyJqHJ0A3EreE2+Y6Em1fyV7pX60DfAd8j6fWwl8BW+1qo8NEPOGX0n+pHE7kaAcFKoqHAicT95j+jGiZ5YtaPWVY4g5qnMnjUeIqqZTqtkt6U8GgdcCd5H3GL8feAcxQ6bUs46iu7k1xrusIp5rbF7NbknrNRP4KLCUvMf8rbSj1L2U5GnE5Di5k8YwUfp7r2p2Sxq3BcDJ5H0eMkx073053qJVy+3FmsJvuZcLiEKGUpM9lWpa31cRSURqlT2IpJH7W9YwcDWeJGqXAaIDx93kPz/OxzEiaoHtiGcNZc+BsK7ldqKEg/d41VYziAGxi8h/vpxBDGiUGmUbImmUPRnTupYHiBNuaiV7JuW3KdHtdhl5z50h4o7AztXslrR+WwFfAJaTP2ksAk7EiqPqXTuQf5DhMGsGGi6oZrekNeYS35QeJ3/SWAJ8Brvdqn/sSTUdTZYTdwycv0bZbUJM+Zq7aOHoA7sX5sKWisg98dnoL2iOVlcWs4B/pJoHe8uBL2KTWoLomfVKYo743OfeA0SBx2mV7Jl62nTiYMpd6XaY6KH1DaLHlqQnmgy8DbiX/OfincCbcVZNFTCJ6Aabuy7PMGt6gOxSyZ5J7dbp3lvFreNbsTu8xmki8HqqKY8+RMzi95QqdkzqMZsDn6Wano5XAcdWs1tqmwFilPZ15D8Qh4kBSwdWsmdSb+uMsapiYO7FxEN8CYiD4XKqSRrnAUdWs1tSX9mN6koCnQccVs1uqYmOAi6hmqRxETHxk6S8DqLaCtb7VLNbaoKnAWdSzcH1eywPLdXhKOBS8p/jq4kWz07V7JbqUGV59GuIqqGDleyZpPU5Cvgd+c/5FcSzl62q2S1VYXequxd6C3btk5pmkLgDcBP5rwGdyhDzKtkzZbEt1ZdHn1jFjkkqZDJxnlYxj8ijRMmTjSrZM5Via6orj34flkeX2qbKeUQ6UyhY8qTBtqS6QUP3EWVLpleyZ5JymAt8ElhK/mvGHcBf4d2JRulUul1M/gNgMTZFpV6zgOruVlyHPTBrN5NoDj5M/g+8U7J540r2TFIdtiWSyGryX1MuxIGGlZtOJI0Hyf8BPwZ8gmjeSuoP+wGnkv/60imKumM1u9W/JlJdpdtOd7v5leyZpCY6BDib/NebzhgRu/d042EfAAAOxElEQVSWrFO08Hqq+RBPBravZM8ktUFV9e86t8dnVbNbvc0SA5KaoDPQ8AbyX4/uwnFjhR1INcXNhoCfEqVLJGlDqpwo7loiYWkcdgG+TzWlRH4K7F3NbknqMZ2OOw+R/1p1BlFyXuuwCXGvr4oBfhcAR1SzW5J63CyqmRZ3JfAZHGP2J5OBd1PNWI3LgaOr2S1JfWYL4HPk/wJ8D/A6+nyQ4Uuo5uHT9cCf0+dvtqRKbA+cQv5b72cDO1ezS80xG/gv8ieNO7DHgqR67Ek8V815jVtB3O6fUtE+1eow4DbyvqH3A+/CSreS6vds4DLyXvN+R4/3GH0TkSlzvYGdATY+UJLUJJ2Bzjlv068gCsT21OylU4Cvke9NWw78O7BZVTskSQVMBv6WmNIh1/XwV8TD+9abC5xPnjdpCPgOlhKR1C6zgI8Qd0tyXBsX0vKKvTsAfyTPm3MmcEB1uyJJpdsSOIk8JeBXEs9+W+cg4F7Kf0OuxuH6knrL7sAvyPNF+xRa1HnoOcQ8GGW+AbcBr6XHHgZJ0ijHkqd6+DnAphXuRyEvApZR3k4vAv6OFmVOSerCJOCdlD/Z3Q3ArhXuR5LjKa8r7hDwTZwcRVJ/2gT4POU+D7kf2L/KnRiPlwCrKGcHLyNm8JKkfncQcAXl3s05tNI9GMMRwFK636klwFuBCdWGL0mNNpHoOfUo5SSQJcTI91rtTWSybnfmOqIWjCRp3bYBfkY5CWQpNU5NMZ8YjNLtTvyAKJYoSRrbAPAOyumYtAjYp9rwoxl1bpeBDxOTm9j9VpLS7Ec5tbLuI2Zwrcynuwx4JfBXVQYsST1mNnAq3SeQP1JRQdnjuwx0GTEeRJLUnUnEKPJuE8iPyTxh3ny6m/B9KU4FK0llGgQ+S/cJ5H05g+zmSf8yGtA9TJJ61GfoLnmsAg7PEdjruwhqNRY0lKScBoAv0l0CuRmYUWZQW9LdeI53lBmMJGmdBoGT6S6BfLzMgL7eRSCfLzMQSdKYJtJdifeVlDRf0n4UL851ATH1oiSpOtOBCymeQC6my95XA8B5Bf/4PUTvLElS9eYBN1E8gRzXzR9/aRd/+IXd/GFJUtd2ofjcINcSt8CSDQC/K/hHv17kD0qSSvciYo6kItfyNxb5gy8u+MfuxEKHktQk/0Gx6/kNFKg/eGnBP/bKgjsnScpjCsUnlXpxyh96XsE/8hsy10eRJBWyK8Um7js35Y/8b4E/MEQD58eVJP3JRynWMDhwPC++NcXmI/9xGXsmScpmJsUm8TtpPC/+TwVeeNyZSZJUqyJ1Ch8lEs96TQTuLvDCPy9zzyRJ2QwCV5J+nX/tWC96VIEXHCYesEuS2uG1pF/nfz3WCxYp51uoH7AkqTZTgQdIu9YPAdt1XmD0RX8CxWqZfGnkRSVJ7bAM+EbiNgNEyaonOZL0VsdqYKsCgUuS6rUD6RXTz1/XC30s8UU2eA9MktRoF5HeYJgPT7xtdUSBP/y9wiFLkup2WuL6g8Cxo38xk5g9KrXlsXU3UUuSavU00q/7vxj9AkcXeIGr8+6TJCmzCaTP9/EIMKFz26rI6PDTu4tZklSz1cBZidvMBnbtJI9dC/zR1D8oSWqeKwpss3sneexWYOOLC2wjSWqWIo8gdh4knp7vnLjhLcB9Bf6gJKlZ/lBgm/mDwGbA9MQNLynwxyRJzXML8HjiNrMHgS0K/LGrCmwjSWqeIeCaxG1mDwJbFvhjqX9IktRctyeuX7jlcW2BbSRJzZT6DHv2ILB54kargJsTt5EkNVeh5LFJ4kZ3E6VMJEm9ITV5zBgENkrc6I7E9SVJzZaaPAYHiaHmKRYmri9JarbU5DGhSMvD5CFJveWxxPUHiySPhxLXlyQ124rE9QcHgVmJGy1KXF+S1GzLEtefMAhMTdzo4cT1JUnNtjxx/YFBYEriRosT15ckNVtq8ijU8kht3kiSmi01eQwOApMTN1qVuL4kqdlSB34PFml5OLpcknrLQOL6g4PApMSNTB6S1FsGN7zKkzdIzTirU/+IJKnRCiWPVMMFtpEkNVdqI6JQy0OS1FsqaXlIknqLyUOSlGx66gaDpPee8pmHJPWW1BqHQ4Okjxg3eUhSb0md12nFILA0RySSpNZITR4rbXlIknZJXN+WhySJ/RLXXwFwHtGaGO9yIXBUOfFKkmq2MTGHeUoeuA7gfxI36iznAEdUsWeSpNJNA94C3Ez69f9MgC8X2HD08mtsiUhSW2wCfBC4l+LX/ZMB/l8XL7D27axjsNyJJDXRbsDngEfp/nr/LwDHl/BCo5ffA28kfZ4QSVK5JgDHAmcAQ5R3nX8NwLYlvuDo5T7gI8AWpb8dkqSxbAr8PXAL5V/bh4CtO3/o/Ax/oLMsB34AHI21tCQpp32Bk4DHyXdNP2v0H9yV9K5aRZbbgQ8TrR1JUvdmAm8ALiL/NXwIOGTtAHYFbq3gjw8TsxGeRjxvmVL4LZOk/rU/8CXgEaq5bg8DH1hfMBsD/11hIMPA/cCngT1T3zlJ6jNzgbcDl1HtdXoV8J7xBPgK4M6KgxsGriIy207jCVKS+sBk4MXAj4hnyHVcl5+WEvBMoi/vshqCHQYuB94HbJcStCT1gEHgMOCzwAPUcw2+DXgtXXR02hb4OjFpVB07MAxcQjSZtim6E5LUcBOIkk+fBe6ivuvtncA7KHGs3k7At4h7X3Xt1BBwAfBO4M/K2jFJqskE4JnAF4C7qe/aOgzcBLyJjJ2YdiSe8C+teUeHgd8BHyXuxzmGRFIbTCTqAX6J7upLlbVcAbxqJK5KzAP+GXg40w6lLvcB3wReRvqsWJKU0zRioPRXiB6mdV8vh4jhEs/OudMbMhU4gchedb8hnWUVMU/Je4liYJJUte2J20Dfo5xihGUsK0biOTDjfhdyKPAd6ulONtZyNfAJ4LnA9Gx7L6mfzQBeCHyeeH5Q93Vv9LIQ+BAwP9fOl2Ue8a3/Vup/09ZeVgK/BT5G3HecnOctkNQHOq2Ln1LfsIaxlt8Sd4Ym5XoDcpkIvJSYdarMcsBlLouJD/4dxCh35yORtD4LiIfLXyHGQdR9/VrXsgj4IvCUTO9B5XYD/p1mPCwaa7kb+DbweizgKPW7nYhrwTcpNl1rVcsQcDYxz0bP3pqfQNwu+h7x8KbuN31Dy0KiZfJe4pmOt7mk3tW5DXUyzbztvq7r08eIIRR9ZR7wbuAP1P8hjHdZDJwOnEgkwVmlvyuSqjAJOAh4F/Bj6isDUuQa9J/Ac4gv47Vo0v39/YFXEmXat97Auk2ymhiseP6o5c5aI5K0tonErfMDiG6qBwB70Z4pIVYCvwROAX5CDNKuVZOSR8cg8HSisu/LgM3rDaeQu4iSyaOXe2qNSOofg8DORILoLPvSvmcBq4FzgO+PLA/WG84TNTF5jDYBeBaRSI4FNqk3nK6YUKTyDRCVt0cniv1pb5WJlcQ0rz8kbqXdX28469f05DHaRKLi5IuJRNKmW1vrs3ZC+QPR/U/Sk20F7EF0Qd191M8ZdQZVgmXAr4iE8ROi5FPjtSl5rG0P4OXAMcQ3jV6xnBidejVwDZFUriZ6fgzVF5ZUmTnEmKvdifO8kyjm1RlUyR4ATiV6cp5GPARvlTYnj9F2IsoCHE1MoNKWh2ApFgPXEq2Ta0Z+XgvcUWdQUkGDxN2DHUeWXYmEsSewRY1x5fQHIln8LzFHUau/DPZK8hhtOnAI0Y32WOKg7GXLidtf1xAtlJtHLbcQXfukuswnWg7br7XsSvtvN23IY8CFwM+I5xc9dUu6F5PH2nYDnk/0iT6U9vW46MYS4MaR5QYiodxG3AK7nUg8UjemEjN87sCaVkRn2Y4W1lTqwhBRS+q0keViosJ3T+qH5DHaZOBgogfXM4Gn0l8H92jDRCmWW1iTUDo/7yRGri6qKTY1wyRgSyI5bEPUdVpAzOK5gLjttFlt0TXDNcCviR5S59Cw7rQ59VvyWNtM4hnJM0eWvalxxGYDLSVuid098vMeIrHcQySXB4iT5UFsxbTNDGAukRzmE4mgkxQ6CWILnKFzbTezJln8mjg3+lK/J4+1zSaelzwdOJwYiTqt1ojaYwmRRO7niUllEXHvdxExIc6SkWUx8MjIvx8b+X9KszFxfE4jeijNGPn37JFlHpEgOsvmI8tcPK7HY4h4jngeUTniXOyg8icmj7FNJgYdHUq0UA6h3QMVm24lkUyGiMQCkXSGR36/kmgNLRu1zWNEgc2OYZ58u2058HiGeNdnFmPPBz2NeFYA8c1+o1H/bwZrim9OZE3ttElES3mjke376dldVZYRzyx+w5pSQ966XQ+TR7r5RMvkUGJ8yf6suRBIao+7WdOquIxIHMvG3EJ/YvLo3hSibs5Bo5Yd8b2VmuReIkFcMrJcDDxUa0Qt5wUuj1nEw/fOCNn9idtfvTh4UWqau1lTmWF0lQaVyORRnanE6Nn9iJZKZzTtnDqDklpsJXA98HvgKmJqhMuJVoYyM3nUbwHROtmLNTV8dsMHotJodxKth6tGlk6ZnhVjbaR8TB7NNEiUcNgd2IWYm2AXoqRDvw/KUu9aTYyjuHZkuY5IENfRwsKBvc7k0T4bsyaRdJLKDkSycUpctcFColzOjaN+/nFkcbBpS5g8estmPLkA3fZEctkKRwurGstZU+rmVqIEzuhE8Vhdgak8Jo/+MZk19Yg6tYq2Zk1Zim2w5aLxeYR4BnHHyM/biARx68jPu7Gac88zeWi0OUSCmU/UNdpyZNli5HfziBZMr5fS7kfLiHEPD476eR+RCG4napt1EsaSmmJUg5g8VMRMIpmsXTdps5F/b7rW72bWE2Zfeph4uPzoyLJ2Quj8fGCt//ZWkpKYPFSFiUSrZvSy8Tp+N4voorwR0bqZPvK7zu97tcXTqb01+sI/+ucinpgQOkUlH1lrXYtLqjImD7XN6MKAs4hnORsRo/fX/t3UkXXX9bvZRLHB0b/rmE2U5u8UYxxdqPFx4mK/gjXVgJcTF/DO/3uYuA20dGS75aypJrx85HedAo8Pl/KuSBX7/9rIVPyfifmRAAAAAElFTkSuQmCC;fontFamily=Courier New;fontStyle=1" vertex="1" parent="1">
          <mxGeometry x="240" y="-34" width="73.05" height="80" as="geometry" />
        </mxCell>
        <mxCell id="qmRgz9lJUut0-xWqPHnc-26" style="edgeStyle=orthogonalEdgeStyle;rounded=0;orthogonalLoop=1;jettySize=auto;html=1;entryX=0.5;entryY=0;entryDx=0;entryDy=0;strokeWidth=4;fontFamily=Courier New;startArrow=none;startFill=0;endArrow=classic;endFill=1;" edge="1" parent="1" source="qmRgz9lJUut0-xWqPHnc-11" target="qmRgz9lJUut0-xWqPHnc-2">
          <mxGeometry relative="1" as="geometry" />
        </mxCell>
        <mxCell id="qmRgz9lJUut0-xWqPHnc-11" value="" style="aspect=fixed;perimeter=ellipsePerimeter;html=1;align=center;shadow=0;dashed=0;fontColor=#4277BB;labelBackgroundColor=#ffffff;fontSize=12;spacingTop=3;image;image=img/lib/ibm/vpc/LoadBalancer.svg;rounded=0;strokeWidth=2;fontFamily=Courier New;" vertex="1" parent="1">
          <mxGeometry x="406" y="-34" width="80" height="80" as="geometry" />
        </mxCell>
        <mxCell id="qmRgz9lJUut0-xWqPHnc-24" value="" style="group" vertex="1" connectable="0" parent="1">
          <mxGeometry x="260" y="90" width="370" height="210" as="geometry" />
        </mxCell>
        <mxCell id="qmRgz9lJUut0-xWqPHnc-2" value="&lt;font&gt;Search Head Cluster&lt;/font&gt;" style="rounded=1;whiteSpace=wrap;html=1;fillColor=#dae8fc;strokeColor=#6c8ebf;fontFamily=Courier New;fontStyle=1;verticalAlign=top;dashed=1;strokeWidth=2;" vertex="1" parent="qmRgz9lJUut0-xWqPHnc-24">
          <mxGeometry width="370" height="210" as="geometry" />
        </mxCell>
        <mxCell id="qmRgz9lJUut0-xWqPHnc-23" value="" style="group" vertex="1" connectable="0" parent="qmRgz9lJUut0-xWqPHnc-24">
          <mxGeometry x="59.34000000000003" y="40" width="256.65999999999997" height="140" as="geometry" />
        </mxCell>
        <mxCell id="qmRgz9lJUut0-xWqPHnc-8" value="" style="shape=image;verticalLabelPosition=bottom;labelBackgroundColor=default;verticalAlign=top;aspect=fixed;imageAspect=0;image=data:image/png,iVBORw0KGgoAAAANSUhEUgAAAacAAAHDCAYAAACAitXUAAAACXBIWXMAAA7DAAAOwwHHb6hkAAAAGXRFWHRTb2Z0d2FyZQB3d3cuaW5rc2NhcGUub3Jnm+48GgAAIABJREFUeJzt3Xe8JFWZ//HPvUxg8gwDQxjiMCQDQVTAAMiCsigqKqwrophAWRXFgKyCqOwuur9VEDGsYVVMgK4o6ioiKIJEJeecZmCYnOfOzL2/P55up+npUHVOVZ1TVd/363VehNtV9XRXeOpUnTCASHoTgfcCHwW27PPZpcB6z+0tA9Z5rmMFMOS5jlXAas91rG6sx8cQ9n18rAWWe65jPbZ/k3zu+8A8z+2JiHQ0ETgZmAuMqKikKE8Dr0VEJEMTgDOAhYS/yKmUtwwDXwPGIyLiYRB4J/Ak4S9sKtUp9wB7IyLiYAvgN4S/kKlUs6wC3opIF5uEDkCi9BLgj8A+geOQ6hoFHAUsBq4PHItESMlJ2r0C+DUwPXQgUnkDwKuARShBSRslJ2l1MPBb9MJaijMAHA7cD9weOBaJyEDoACQaOwA3Yu+aRIq2Gqu1Xxc6EImDkpMAjAauAV4UOhCptSeA52PvoaTmBkMHIFE4HSUmCW9b4Iuhg5A4qOYk+wFXY62nRGJwMPCn0EFIWEpO9TYeuBnYNXQgIi1uBl6IjSghNaXHevX2PpSYJD77oA66tadHOfU2OYN1LAReB9yZwbokPxOAMR3+/yQ6XwemsvGTlUFgCjAO2BSYBoxt/HMbYCawM7BVBvH+G/BTYGUG6xKRkvkcfkPQzMVaV4m02gNr2LAWv+Prg0UHLvHQY71689n/jwAvRx0nZWN3A6cArwTme6xnRjbhSBkpOdWba4OYe7DE9ECGsUj1XIl1UXC9gVGDrRpTcqo31/1/ENZhUqSfR4CLHZdVcqoxJad6c93/z2QahYhIGyWnetP+l5ip5lRjujjVm/a/xEzJqcZ0cao37X+JmY7PGtPOrzftf4mZak41potTvWn/S8yUnGpMF6d60/6XmCk51ZguTvWm/S8xU3KqMV2c6k37X2Km5FRjujjVm/a/xEzJqcZ0cao37X+JmZJTjeniVG/a/xIzJaca08Wp3rT/JWZKTjWmi1O9af9LzJScakwXp3rT/peY6fisMe38etOdqcRMx2eNKTnVm/a/xEzJqcZ0cao37X+JmZJTjeniVG/a/xIzJaca08Wp3rT/JWZKTjWmi1O9af9LzJScakwXp3rT/peYKTnVmC5O9ab9LzFTcqqxUaEDkKDqlpzGAtu0lGktfxvf+DvAGmBly98WA08Cc4C5wOrcIxWo3/EpLZSc6q3qJ/8Y4B+AQxv/3BP/u/ER4HbgD8DljX+u8VyndKaak0hN/R672KYtsV80tgJOBR7H7fulKU8DZwPbF/LNyul03H7b74cIVkTCu5xqJafdsQvaEPknpfYyBFwA7Jz7tywf1+R0QYhgJQ5Vf6wjvVVl/+8G/Ai4EzgOGB0ghtHAW4G7gW8AWwaIoWpivQmSAlTl4iRuNgkdgKfNsEdqtwH/TBzH82jgBOAe4GTiiKmslJxqTCdOvZX15B8A3gE8gL1bGhM2nI6mAudgDSZmBo6lrMp6fEoG1Fqv3sp4c7IN8D/AKx2XXwfcAdzfUuYAy7D3RuOwGtlOjbIj1spvJ8ftHQzcArwd+I3jOupKyUmkpv5CuRpEHAQ8lTDG1nI/cC7wWmCy47Z3At4N/BhY6BDDMPApx22XnWuDiAtDBCsi4V1HeZLTu4C1KWJcAXwPeHkO8W6KNbz4c4p4muXbhGmwEZJrcrooRLAiEt4NlCM5fRyreSSJbTlwFvbOpwjPwZqvr08Y3wjwKzaMRlEHrsnp4hDBikh4NxF/cvpIwpjWAV8mXBPufUjXqflS4mzIkQfX5PTTEMGKSHh/I+7kdBzJakx3A/sVFFM/R2ANLJL8jj+jnI1S0nJNTj8LEayIhHcL8SanA7Ax6/rFcg7Wwi4mM7CWeUl+yy8GirFIrsnpf0MEKyLh3UacyWlL4Ik+MQwB78w5Dh8D2CPJJI043hsoxqK4JqefhwhWRMK7g/iS0wBwWZ/tLwIOyTGGLL0GaznY6/usAV4YKsACuCanS0IEKyLh3UV8yen9fba9jHjeLyV1MDY/VK/v9QAwJVB8eXNNTr8IEayIhHc3cSWnXeldy1hFeWpM7V6NtSjs9bt+N1RwOXNNTr8MEayIhHcv8SSnQeDqHtscBo7OYbtF6tcsfhg4LFh0+XFNTpeGCFZEwrufeJLTB/ts89wcthnCpfT+ng8SX+tDX67J6VchghWR8B4kjuQ0CxvZodv2bqQ6IypsDSyg9+/7iWDR5cM1OWmg3BqrQwdA6S6G/T8AfBOY0OXvQ1hn3DWFRZSvucBpfT5zKjC9gFhip1HJayyGi5OEE8P+P4HejRzOxSbuq5JvYSPCdzMVG0+w7pScRGqqX0fXvB/rzcT6LHXbzlzcp7iI3fOwWmG3776E6jQtd32s97sQwUocNNlgvWV9ZzqfdLWxscD4Hn8/C1jqEMdW2MV/G2y0ia2w2sgkYCI25UVr0puEnQvrG9sbARZjCWIONofUPdi7r8cd4ulkcyw5dZs+YzI2TUj78EYTgdcDewF7YI9DJ2GNKDbF3t2t7bLORR3+32qsiX6vz61qfK5pGPttwGqAf+6yPV+qOYnU1FyyrTmlmTaiX5lP9/dQ7cYAb8KmWHgmwxg6lceBLwC7JYytk9dhF/x+23qQZ//Wg7gPOZVX+WyC7+tac/p9gnWLSAU9TbzJ6ayE3+EFuA/D5FOGgM8AmySMs+nNpJs08WUty04N8D1DJqfLE6xbKiqGF+ISTqz7fwT4RoLPbQ38H/DcfMPpaDRwBnB2imVeho0CkeZx+nEt/74YmyK+LvRYr8ZivThJMWLd/9eT7N3Oydj0FCF9FHh+gs+NBX5C+v5ar+fZ+6lXK7+qUXKqsVgvTlKMWPd/0hlQD881iuSOT/CZt2CtE9Oagc2y21SnR11KTjUW68VJihHr/k86GvXWuUaR3N4JPnOEx/pf1fLvv6A6HZL7UXKqMTUlr7cYk9N8bPqIJCbmGUgKSVoVzvZY//4t//4INgXH27Cm5M1m8JOw/dnsGzWCvaNqtxZrbt5qCBsNvlV7c/IVjc+1r+fqBPG7ivH4lIIoOdVb1if/5gk/9zG6D+FzY4rtLaF3P6mizEvwmfaEkMYL2v77ukapOtWcakzJqd6yPvk7dfLsZHWPv92UYnsLiOPR3rUJPnMnz24WnsZMYAusD1edKDnVmKrN9Rbj/k/6SA/gD7lFkdxa4IcJPvdNz+3s6Ll8GSk51ViMFycpTqj9P9Ljb3NSrOe72OyyIf0X8FiCz/0V+IHHdrb1WLaslJxqTMmp3mLc/3NTfPYWbFTzoX4fzMmvsdEPknoPcKXjtrZxXK7MlJxqLMaLkxQnxv0/P+Xn/wd4EXBDDrF0sxw4E+sgm6bmthqbhv000jeQ2DTl56tAyanG1CCivgaI8+R3iek2YD9gO+AAYPvGv2+NNTcfDUxr/HMi1sJvLNbsehUbal7L2JBslmJjBa7AanNPY1OM3NQoyxzipLHOs4EvA68FjsLms+rX0rGO52qMx6cUpI4HvJgYa02QfiDVVo+T3ZQWeVuJDWf0E2xfnEXvGXLreKGu43eWhlgvUJK/WPd9HW+YhoHv9PlM0mb6VaLkVGOxXqAkf7Hu+6rM/ppWv1EmFhQSRVyUnGos1guU5C/kvu/VlHyHwqKIy059/v50IVHERdenGtPOr69Y931dk1O/mXUfKSKIyKjmVGOxXqAkf7Hu+7omp/16/G2IdJ2Tq0LJqcZivUBJ/kLu+14XnX0LiyIuB/T422NYE/S6UXKqsTq2jBKT9Ym/IMU6e3Uo3Q8YQzGjPozGJgE8GNgZ6x81uctnV2MdZ+cCjwJXAT8jm1Z0s4Ctevx9R4qZnn0L4kqCSk4iNbQZ1jDBpXS6aAx7rK+97E/+JmFTnvvEuRxLbr5O8owjq+LTx6yX0x3juT2neKQE9FivvmLe9wflvP5RwP/S+1FaEhOwEcnf4bmef/ZcvqpUc6qxmC9Qkq+Y9/3ROa//VODQDNf3VeyRoIsdgJdmGEuVKDnVWMwXKMlXzPt+X2DXnNY9BfhExuvcFDjFcdlj0UW4G/0uNRbzBUryFfu+z+JdTievxQZ/zdqrHJYZB3ww60AqRMmpxmK/QEl+Yt/3HwCm5rDe5+WwTrCp1NM6Adgy60AqRMmpxtSUvL6yTk7THZbZEbiRzq3ENgM+DvyrR0yd9Bo6ycfKlJ8fC3ysz2cuw1qszQHmNcqqxrYWY83t084L1UtMzchByUmklnYk26bkri7ssZ0VWP+jLB3bY3s+5dKUcZzZZ303un29KLk2Jb8/RLAiEtYs4khOe9O7j9TN2LuZrEzGah1ZJ6c3pIjhOVin3l7rO9L9K0bHNTk9ECJYEQlrNnEkJ7BaR6/t/U/G2/tgn+2lLf9H8t9kELimz/p+5/n9YuOanB4MEayIhLUr8SSn5wJr+2zzIxlubwBLeFkkputI13DjM33Wt5LsH2WG5pqcHgoRrIiEtTvxJCeAr/TZ5jDwngy3N4hNi76sz3a7lflYwhybYptH03+Yp15TtZeVa3J6OESwIhLWc4grOU3C3jH02u56su//tDnwTuAi4G66vwt6Grgc+BJwGDZobBr7YA08en2/2xzWWwauyemRALGKSGDPJa7kBPBirHl0r20PAUfltH2wGtU0YFus0cgW+A+IuieW3PolXt+x/mLlmpweDRGsiIT1fOJLTgAnJ9j+WqxJeBnsiz0C7Pedzg8VYAFck9NjIYIVkbD2Is7kBDaQar8Y1gMn5hyHr4Ox+Z76fZclWKfjqnJNTo+HCFZEwtqHeJPTKKx5dr84hoFPFxBPWgPYyOf9WiA2y+fChFkY1+T0RIhgRSSsfYk3OQGMB/6YMJ6fYnMrxWA6/ftttZfZQSItjmtyejJEsCIS1ouIOzlButlqb8UeVYYyiDV1f4Z0v+X8EMEWzDU5zQ0RrIiEtR/xJyew4YauTBjXENbJdUyB8YFNK39DwhjbywrymcIjJq7J6akQwYpIWAdQjuQENpnfz1PE9zBwUmO5vAxi49/9MUVc3cpl2P7IcgzBmLgmp6dDBCsiYb2U8iQnsL5G/UaRaC9zgfOwKdmz6Nw6ATgca/b9aMpYkpb5wH9g79yqwjU5zQsRrMQhtlZOUpyXA1c5LjuIXTxCeA+WpNI+uluBjQBxOzag6DNYE+7FbJjHaDw2HNFErCPuNKyBw2xsLMLtKe6cuQMb6bwK00acDnzWYbn5WCdoEamRgyhXzanVS7ChbfKoueRRrgE+ChwCHAHcmXC5xdi08mXnWnOqQ2MREWnzCsqbnACmABcQPvF0K+uw8fpe2CH2f0ixnmGynw24aK7JaUGIYEUkrDQXyBiTU9Prscd0oZNRs6wCvkbvvktTHNb7Zexxahm5JqeFIYIVkbAOoxrJCaxV3mkkG8Mur7IM+H/AVgniHSB9f6gR4McU30w+C67JaVGIYEUkrFdRneTUNAGb5fYRiktKi4GzsKk30viA4/Z+T/n6Rbkmp8UhghWRsA6nesmpaRT2uO+HwByyT0hLgV8Cb8N92KTBxjpctn8D1pKwLFyT05IQwUocRoUOQIIp6/uLJNYBlzQKwNYtZUajNI1l4z5Fwzz7wrgGe/8xH7gPq5mt84xxGHgrNs37HimXfRHwB+zRbJUbDVT5GBWRLo6kujWnMtkJ93dld2EJN3auNadlIYKVOOjOpL6UYOLwMDb1/FqHZffApo5P0gijjHR9qjHt/PrynXpcsnMZcDxWW0jrOcCfgJlZBhQJ3UDVmJJTfenEj8uPsMdfLnbFRm7fLrtwoqBjtMaUnOpLNaf4/BvW2dbFLsAVVKsGpeRUY0pO9aUTP06nYNODuJiNteKryjsoHaM1puRUX6o5xWk98Gbgd47L74bNMVWFBKXkVGNKTvWlfR+vIWy6jKsdl98NS27TM4soDCWnGtMFqr607+O2EngNcLPj8ntizcw3yyyi4ik51ZguUPWlEz9+S7Bhpu5xXH5vLEGVaaijVjpGa0zJqb6078thHpagHnNcfh/gF9jI7WWj5FRjukDVl/Z9eTwKHNj4p4uXYxMflm0sTSWnGtMFqr6078vlUWyg1zmOyx8JnJ9dOIVRgqopXaDqS/u+fO4HXgHMdVz+BOCM7MIphJJTTekCVV866cvpPuCV2Ey6Lj6DjeNXFrpG1ZR2fH1p35fXHcChuCeorwEvyC6cXOkmqqZ0gaovjRBRbrdhjSRc3kFtCvwYGJdpRCIZUnKqL92Rlt892DuoJxyW3RX4cLbh5ELXqJrSjq8v7ftquA84CJs6Pq0Tsg0lF7qJqildoOpL+746HsIS1L0pl5uRQyxZU3KqKV2g6kv7vloeA14GXJdimftyiiVLSk41pQtUfWnfV8984B+ASxN+/vs5xpIVJaea0gWqvrTvq2klNt3G1/p87lrgvPzD8abkVFO6QNWX9n11rQNOAo4DFrT9bT3wPawj79qC43Kh47SmyjYQpGRHJ331/QD4KXAANoX7EmwCQ9fx+UJQzammlJzqS8mpHlYDVzaKSGnoAlVfZZ/CW+qhrBMliiclp3rahXJ0wBT5fOgAJAwlp/oZwFpyaVw1KYNjgNeHDkKKp+RUPydgfWFEyuKrwNTQQUixlJzqZWvgP0IHIZLS1sC/hw5CiqXkVC/noxfMUk4nAi8PHYQUR8mpPt4EHBU6CBFHg8C3sLmopAaUnOphCnBO6CBEPO0K/GvoIKQYSk718F/AzNBBiGTgNGDv0EFI/pScqu9g4J2hgxDJyCjgG8AmoQORfCk5Vds44JtofDKplhcD7w8dhORLyanaPoMN+ClSNf8OzAodhORHyam69gI+FDoIkZyMx7pGSEUpOVXTKODbwOjQgYjk6HDgraGDkHwoOVXTR4F9QwchUoBzgBmhg5DsKTlVzy7AGaGDECnIdKyrhFSMklO1DGCDZGrEcamTtwJHhg5CsqXkVC3vBg4NHYRIAF8BJoYOQrKj5FQdW6GJ2aS+tgc+FzoIyY6SU3UUOeK4jhuJ0QeA/UIHISIbvAEYKbD8Gk29IcnMAK6nuGPzdmBMId9MRHqaCjxJsclpBHgQDcApve0LPEbxx+bpRXw5Eentvyn+5G+WVdiFQCOeS6utseNiJWGOy9XA7rl/S8mVBgQtt4OBKwi/H0eAe7Da1KPAHGApsAJYDizGLlSrOyy7FFjf9v+GgSUdPrsaS4iS3jg6T9Q3kc4jiUxh43eLA1hNfVyjTMWGEZoCbIPdpOxMHInhauAg7FiSEgp9URN344BbsU63EtY6YFnLf3e6sEvxTgK+FjoIcaPkVF5nA6eGDkIkYkuB5wJPhA5E0lNyKqc9gZvQwK4i/fwaeE3oICQ9zSZZPqOAS4FtQwciUgK7Anc1ipSInouXz4fJZsTx9kYIIlX1ZWCz0EFIOqo5lcvOwIX4P85bBHwL9970s4F7sQS3DmutN5hBXFJ+K4GFWKvN64HzgA8C/4LbzfACrEWgj4lYZ+BfeK5HCqR3TuUxAFwOHJLBuo7DWpR9xXH5QSwhdTIGmND4zJS2v7U3W25+ttVUkh+X3ZpBJ7UpfiO4j6b3YKPLgbUe6/dtOr+2EUMSI1iT/1YrgKE+61uCNddeCazpsf51uN0Mfwo4BnvP6mMEOAz4g+d6RKTNu8img2Lz7vEdHuvQTY2k1axhpy0nAnthic/32H+YjW+GRMTDVtijEt+T8xlgy8Y6j/FYj5KTpOWanN7SWP4Mx+Xbi0buF8nQxWRzYh7dss4jPNaj5CRpuSanZjPwUcANjutoLWvJpkGRSO29hmwS04/a1nuQx7qUnCQt1+R0YMs69sDewfmeC7egxjsiXiYDj+N/Ms4Bpret+4Ue61NykrRck1P7yPenOq6nvXw8l28pUhNfJ5sT8agO697dY31KTpKWa3Ka1baeQeDPjutqLSuxLhEiktKBWBNd35Pwu13Wv53HOpWcJI0B3I/lLTqsbzeymY4jhhH9RUplU6yTq+/J9zjWb6iTzRzXOYxOaElnLO7H8Ngu6/ywxzpby7uy/KIiVffv+J90w8A/9tiG6wVD8ylJWpNxO9Y6zf/VNAj80XG9rWUxmixTJJG9sF75vifdNxJsa7XDehf5f0WpmW1wO4bn9lnvztiIFb7nysWZfEuRCtsEuBH/k+1hYFKC7c1xWPcc728pdbM3bsfxzQnWfZLjutvL672/pUiFfQT/k2w9Nn17Enc4rP8hr28odXQobsfyZQnW3Rxz0ve8eYKNx4IUEazJ7Ar8T7JzU2zzKof13+P+FaWmTsTtWL4g4fp3wAag9T13NKV7RDSfUzy+jv/UAA8Bn0zx+QUO2xhxWEbqbTfH5Z5K+LlHsacOvk4AXp7BekQq43j87/rWAS9Jud3vOGznMadvKHXmUkMfAT6UYhsDwG8ct9P+ZGBT1y8qUiVbYjUY35PqCw7b/k+H7azHbw4kqZdxuLUKHcHeVaUxE2tN6nsuneXyRUWq5kL8T6Y7cbvbO81xe8c6bEvq6Z9wP6637LC+ft7msb1mGQKe77Btkcp4Lf4n0lpsEFcXrheOB1HHRUnmT7gdY/M8tnmJ4zZby/W4zdwrUnpZjTj+OY8Y9vLY7oPAG1GjGunOZ0LLyz22uxUw32PbzZLmnZdIZXwV/5PnFmCMRwzjsJqXTwz3Al/EJi/sNEin1NOBwDLcj6vTPLfv8zixWZYDO3rGIY40gGcYL8Med/jUOoaAFwO3esZyDelb+fWyBHgAG6ViHtbYYwF2J7sKWNr43ArsO6zv8//qZAJ+NxtgHUldjqtO257Mxo+2prX999TGchMbZSzWZ+8oxziano91EvdxEc+e/dnF74DDPdchDpScircpNizL7p7rOZ1sWhV9trGusophrD/XhCCdPQLslMF6tgBux61hRau3kbxDsEhpfQ7/xw03AKMyiue5GcSjopJl+RLZOSqDeJ5Bj6yl4vbEf8TxVcBzMo7rj54xqahkVYbxf6rQ7gcZxPXDjGMSicYmWPNU35PkoznE9nKymXVXRcW3/ILsbQY8mUFsveZHEymtLGbuvJr8+l64DGWkopJlWUd+nV9fnUF8j2KNPkQqYwf8mtWOYC3ZdskxxnHATZ4xqqj4lLPJ17cziPGcnGMUKdTv8D8pPlBAnDuSzeMPFZW05XryH3B1CjZwsU+c64H9c45TpBBZjPV1BcU1Vd4NtxlyVVRcy0PYVO5FOAz/96u3498fTSSoGfgPo7KU4nup747/HaaKSpJyL7A9xfpaBnGfUXDMIpn6Mf4nwYmFR222A+5OGKOKikv5FRuPOFGEiVhtzSf21cAeRQcukoXX4H/y/p6wo3hMxy4goS9iKtUq84B3EvbYPgh7f+TzPa5GI4NIyUzC/7HYEqyVX2gD2OjjNxL+oqZS7vIk8GlszL4YnIv/dzqp8KhFPHwF/4P+PYVH3d/uwPuxx5W3YqNVhL7gqcRd1mBPAN4IjCYu47F3Xj7fbwmwbdGB14EGfs3eS4Gr8KvuX4aNhDySSUT5GcTmztkKa221BdZfalKjjMdGu57S+P/jsef9rRepsY3/37rOKT22OYnsxhUssxFgcYLP9RoYdwnWcq2T5dh0KjS2M4LdjDSnXG9uuzmS/DqsL9+Kxt8WYWPSPdz4W6xegp2vPp3bL8UmDhWJ1hhsynTfO7GiWy+J1NkX8K8hHlN41CIpfBb/g/ydhUctUm9jsb5LPuftM8DmRQcuksTzsOfrPgf4ZehRq0gI++A/Y8B3Co9apI9BbEZZnwN7Mda3SETCOAv/Jx+HFR61SA8fwv+gPr7ooEXkWUbjP/jxw1gjIJHgdsB/xPFfFR61iHSyF/6P579QeNQiHVyK/+M89ZMQicfp+J3T64B9C49apMVx+D/OO67wqEWkl1HADfid17cSX6djqYnNgafxO4AvLTxqEUliD/xHQPlE4VGLAD/E78BdBMwsPGoRSepU/M7x1diQXyKF+Uf8H+cdW3jUIpLGIPBn/M7zP6K+i1KQCfjPBfPLwqMWERe7ASvxO9/fXXjUUkvn4XegzscGShWRcvDtx7gYPcKXnO2HNRP1OVD/ufCoRcTHIPZ4zue8v7jooKU+xgB34HeA/qLwqEUkCzsBS/E7/48qPGqphTPxOzCfAbYsOmgRycxJ+F0D5gDTCo9aKm13Nkyy5lo034tIuQ0Av8XvOvD1wqOWyhoErsbvgLyk8KhFJA8zsT6KrteCYeCQwqOWSvogepwnIhu8C79rwr3ApoVHLZWyPf4vQY8uPGoRyduv8bsunFV8yFIlv8TvAPxJ8SGLSAG2ARbgfm1Yi82+K5Lasfg/zptReNQiUhTfWQluADYpPGopten4jzj+psKjFpGi/RS/68QpxYcsZXYBfgfcj4oPWUQC2AK/G9kVwM6FRy2ldDh+iWkeepwnUievx++a8Qc0crn0MR54EL8D7Y2FRy0ioV2I33XjbcWHLGVyLn4H2A+KD1lEIrA5MBf3a8d89MTlWepYlZzMxi1kxgF7Ab/CRoRw9SfgNuxAWwUswZqMLseGP1qFPWMeallmqPH/2o1gQ+13sryxXhF5ttHAxLb/N46NO722XwcGgKkJ1jUeGNtlXQdjrwVcXd4oq7DrBdiIEktaPrMMmxkBNr52LMauG2BzUK1p/Pt6rL9mqfgkp8nA8diO36Tx3+2mdtjGBGyE71ZjsZ3eahCY0mW7nZJL+8HXLaYq65bo2rUnyLTrbB74zRNlCXYCLMTeuc0Dnmz884nG56T8xmKPnzYDRgGT2v7e6Tyc1Phsq/bBT5MmlPZ1dUoo0t9S7HwFG4oJnp3AWs/5ZqJsJsll2M3xisZ/L238+zKsYUhm57trcnoTcA6aQEuSuR/r03E9cCU29YiUxwA2cPHZwI5hQ5ESWIKd438DLgN+z4ZaXG52wn/YDhWVvwJvQMrgAOBawh8zKuVs75I+AAAgAElEQVQtTwEfZ+PHoZnYBDgVq76F/qIq1Sk/pfOjWwlvCvBN7HFO6ONEpRrlfjIekX0WcE0EX0ylmuUBbL4sicdLgMcJf2yoVK+sBz5LBsM2HY7/qNwqKv3KHGA3JAZvxBq8hD4mVKpdfo41enFyNPYSK/SXUKlHeRKYjYR0LHZnG/pYUKlHuZqNW3z+XbfWeq8EfoNGzJViPYg9UpoXOpAaOgzr59fezUMkT38CjsBq68/SKTntCNyEjcwtUrQbsM6MqwLHUSezgJupX79AicMvgaOwxjd/114zGsSaiu9aUFAi7WZinS8vCx1ITWwCXIoeqUo4u2G558peH3oH4Z9Dqqisw/rXSP4+Qfj9raIyDBxKi9bHepOB+4AtEQnvT9jjPcnPLKwnv3OrKZEMPQrsSWMYpdZBTj+GEpPE4yBgj9BBVNz5KDFJPHYATmv+RzM5zQA+FCQcke40xFF+jsFvBG2RPHwQ2Bo2jPB7GhuPCpzWKcCXPNch1XEydjz4jHy/X0axyLNNJvtzdSU2qsTTWFeApY3/1xy9elXjvxdjfamWtC3fOk1EU+sUEFlpHZG7LjqNDA8bjw4P3WdzaM4cMbXxz+a/b4218N4R2M4/VMYD7wY+R2OFq/B7mfXhDIKS6jkZv7HZnig+5Fr4CP4vsOcBXwaORCOVi9kV+Dw215zPsXVvc4X/7bkiJSbpxTdB6T1o9s7E75z/HjYvm0gnB2A3lj4t9zYFvyynxCRJ+CSoAwPEW3Wfxf2cv53Oj4hEWm0J/BH342xnPBZWAwpJ42TcjrM3hQi24s7C/bx/b4B4pZxGYX0WXY6zFw92WGFS53gsK/VzLnbQpaXHetnzOe8vzCwKqbpmYnIx0ecgFSnCjNABVJDrgM7zgUVZBiLSxQQlJ4mdak7Zcz3vH880CpHuVHOS6HXqiyF+XM/79r5JInlRzUmit2noACrI9bxfnmkUIt2NUXKS2Gnst+y5vnNakWkUIt2NVnKS2Ck5Zc/1vFdykqIoOUn0xocOoIJcz/uNptIWyYke60n09M4pe67n/ZpMoxDpbpSSk8ROj/Wy53rer800CpHu9FhPojc6dAAVpOQksVPNSaKnYzR7rq31lJykKKo5SfR8JiuUzlRzktgpOUn0dIxmz/U3Hco0CpHulJwkeqo5ZU81J4mdkpNET8do9pScJHZKThI91ZyypwYREju11pPoKTllTzUniZ1qThI9HaPZU3KS2Ck5SfRUc8qeWutJ7JScJHo6RrOnmpPETslJoqeaU/Zcz/t1mUYh0p0aREj0lJyy59paT4/1pCiDo0JHEIGpwPaNf04AJmIn4QpsioAngCfRiRmKbqCy55rwq/RYbxywDXbej8XmDVsLLAWWAPPQtPQh1S457QbsD7wYeCEwG9gswXIjWIK6DbgFuAH4I3YQS75Uc8qea81pfaZRFGMA2At4GbBno+yGJaV+ngYeAO4Arm+Uu7HrgeRrEOyHdillMAi8AjgHeBD379qprAWuBj6B1bykv2HS/86a4C57f8DtmD8gRLAOxgHHAD/BakBZnvdPAt8AXo2mc0liLW6/89U4Lhh7cpoJnA48RLYHZreyHrgSeDNQt9poGi7JSY9Ts3clbsf5fiGCTWE/4HvYo7kizvungS9gNTHpzDU5XYPjgrEmp1nAN7G77SIOzk7lIeADaHrxTlySk1qIZe9PuB3bLwoRbB8DwFHYxSzUOb8e+BmwT87ftYxck9O1OC4YW3LaAktKrj9EHuUR4C3onUkrl+RUxvccsfszbsf0C0IE28P+wF8If643yzCWpHbK80uXjOs1+XocF4wlOQ0AJwELCX9gdivXAs/J6wcoGZfkNBwk0mpzrWXsHSLYDsYBX8HteCqirATOxFoB1p1rcroRxwVjSE5bAb8l/IGYpKwCTsW9lVRVuF5MVPvM1nW47Yc9QwTbZh/gLsKf00nKrcDz8vkZSsM1Of21rC/vDwV+hD3OS2shcBPwN+z90BzgMaxf0wiwGOvzMKlRmv2gdgee2yhpW+dtCpwNvBJrNPGMQ9x1NkAcN0RV4dp3LPQj1rcA38JqTmmNAA9jCeMO4HHgKexcXIt1CxnGbiCnYOf9llhjhz2wpLhzym3uidUAPgqc7xBznQ2A+11BKO8nfTa+Dfg02d357YI1evg1sDplLI8R54vlIrjWnMp6ExWrm3DbD3uECBZLpp9PGGNrmQd8B7sh3DyDOHbGrj9XOcTy39Sz6blrzekWHBcMkZwGgfNSxLcOuBh4ac5xzQA+id2JJY1tBXBEznHFyDU5jQkRbIX9Dbf9EKLJ9GjsKUnSGNcDvwBeR77JYE+sv1OalsFXYrWyOnFNTrfhuGDRyWkU8P0UsV2GPX4rOsa3Y48Jk8Q4hD2mqBPX5OTyGEe6uwW3/TC74DjHAb9KGNta4LvY4/ci7QL8PGGMI1grtGkFxxiSa3K6A8cFi0xOo4CfJozpKeD1BcbWySTsEUSSO6r1wLFhwgzCNTlNCBFshd2O236YVWCM40g+ksUVhHvk2HQ4yW9M/0ayYdOqwDU53YnjgkUlpwGsx3eSeH6NvcCMxQtINkLFEPCaQDEWzTU5TQoRbIXdidt+2LGg+MZg53O/eBYDby0opiS2AC4h2W95FfXoqO+anO7GccGiktO5CeIYBs4gzubGm5HsscRK4MBAMRbJNTnV7Tl93pqDl6Yt2xUQ2yD2rrhfLDdSbE0uqQHgUyQ71i+i+qPuuyane3FcsIjk9L4EMazCWuLEbABrRtrvuzxD9QeQdU1OdXpGX4R7cdsPMwuILUmrvAuJv4Prm7HrU7/v8vlQARbENTndj+OCeSenA7HHXb22vww4OOc4sjJAspaGN1Dtqr5rcpoeItgKux+3/bB1znEdnyCG8yhPbeNA+g9COwy8NlSABXBNTg/iuGCeyWk6/V8sLsXmZymTAWzIlX6/69dDBVgA1+Tk0tlaunOdPmZGjjE9n/41ja/muP28vATr4Nvrey0EdggVYM5ck9NDOC6YZ3K6qM92l1GeeWXabQL8jv53UoeECjBnrskppoYuVfAIbvshi46snYzDmg732vaFlKfG1G5/rPFGr+93NeX9fr24JqdHwP2CkYej+mxzPeWvAm9G/zvX+6lm3x7XYy3vx0l18xhu+yGv5s//2We7t1D+8+FF9B+g+oRg0eXHNTk9BvEkp9H0f1H7kRy2G8KeWAu9Xt/1M8Giy4/rsVbEi/g6eQK3/ZBHq8nZ9O4TuBTYNYfthnAgvS/WC8j30WkIrsnpCYgnOf1Ln+1dlMM2QzqF3t93CdXrqOd6rBXRhLlOknYWbS959Dfr9xi/arWJU+n9fb8WLrRcuCanJyGO5DQBmNtjW0+R3/PuUAbpP+nbWcGiy4frsbZDiGAr7Cnc9kPWI3XsgT2q77a9a6jee5gx9H7ntxrYNlRwOXBNTnMhjuT0b3229YaMtxeL2WyYqqNTWUK1hu5xPdY0s2i25uG2H7J+79Nr9Jf1xDO5Yda+Tu/f+cvhQsuca3J6GsIlp82B/bB+C71iuDqDbcXsDHr/zseFCy1zrsda2nl0pLcFuO2HLPvg7Ujvvow/zXBbsfkWvX/nFVRnVBTX5PRMHvPkZJG4Wp2Z4rObYwO/vhCbKXcaNmnYVLo/L5+ANcZY3OXva4FFWEubhcB84K/YECtPpYitk9H0nx33bcAFLf89k8bLwsgMkv2+b123ZMf19+y2f9eR7SzPI8DnUnx+a+BN2Hk/HXtX2yydrnED2DVhCEsEnSzHzvfmuf8wNhDt77CbLFdTgCP7fGY8cDSWxFpl/TtnYTQWV9YGIfuak8u6upXrUnyZE7EDKsvt9yqrsUYNrvYn2XTT69m4KbXrwJ15liRjG7oeayHmEaqyfp1Cu5Vu82qtc1xft3JFiu9yCukn/PQpN+I+zNgAyeemuqrD8ln/zlmUfhUc15rTQog7Ob2vzxdvenvG201TvpAwxlYnkW6SsvZpNZKMNFF0yTM5hZ4OoWqW4bYfikpOSaeROTvj7SYtD+HWQOs/UmxjmI27UNQpOS2CeJPTEMkOgK3p32co7/KhBHE29Wsy36m0V++PDfx9O5U8k1PRE0dWXa9GOL1Kt5lls7xoLiFZw4uTM9ymS/l1ghhbvdVhG29rW4fru8I8Sy2T0+/7fOmmszLcpmtZTbK7+z1w21kPtq3nuRF85/aSZ3J6foJ1S3JJRsvuVLpdiLJMTkkaQuxOsY/yupWkw4xtjr2rTrv+77Wtx3WqkzxLbskp5hfN1yT83D/mGkUyY0lWe/oI/XdmJzsBk1v++xHyeQkZq9heApddzL/nbxN85sPEMWVG0okO34/byPqvaPvvuxzWUVYDebTWy8q1CT8Xy/uIlyT4zIsd1z2Afc/rG/+9Angp8HIsce2IDXsyCmsNNAZrhdj8Z9nFfBNVRlm31svS5Qk+E8vAz0nP52Mc178d1uJwYeO/P4VN8T4La308rfHPccDEtmXb50CbSPfHstEK1c/pzD7rT3KnsYlj7HmUWxLEe4PH+o9PsP7YuR5rrkldOnPdD1nUuHo9Anwm4Tpudow/65K0S4dr68gRyjc1UDvXx3pLYr0jXYa9/OtnfcLPFSFJZ+E/eax/tseyZRfDI5yqGCDZ+8FORrIMpIMkN3gQT8f8pxN+7g6PbdS2MVCsyenxFJ+9IbcokluPTcXezzexVoguqjZacRpKTtnxOefzTk63J/zc+dg5F9qVCT/nM4HoLI9ly2ygCsmpvUVLCF/GWtL0cx/WN8NFnWeDVXLKTsyNIZ5M+Ll7gHPyDCSBIZLdkAL8gOSJrF1tJ9qMNTktSfHZi0jWwicvfwX+NcXnP4vbuGFKTpKFmGtOc1J89pPATXkFksCp2JBGSYxgwxG5tLar7ROTWJPTmhSfHcFGLf8OxVf178Rm5l2dYpn1wJuBfyddvC5NUatCySk7MbfUS/oOB+wa8TrsHCzSGuDjpK+5LcBa16a9ka5rzSnapuRpLvZgnQrfhdVgXoa9RHwe1vltMtascjL2SMOlSeUqNgz8ugB7/HAF8EPSJdKm9did3w+wnu6H0f/ZcntT0TrJcjTsuov1hhTSn0tzgH2xEVMOwYb7aQ74Og33bhRDWKOsJdhIBYsb27oJ+F/cB15eiPXLfCM2Usx+2CCvvUx13FYlxNiU/CsZrL9sZgCX0P03WRQutMy4HmsnhQi2oibjtg+yeirRqyl5HbsMbA68h+6/ybxwoWXCtSn58ljvoroNMFll87BJF7upc82pts/dcxDrOV9X8+k9Tt/kHn+rtFgP1Lq+Y7ivx99Gkf1MpGVR1+fueXBtrVfEO6e6PsLq1e9sLPW8Hkb7zqmuF+Hlff4+EXv/VTevwh71LsCe26/C3gM0HzctbXyuffK45md6GSZZ69C19N8/ZRBzg4j2IXfqYrs+f5+E27vtUos1OdX1TrnfHdJEkg/xUiU7YS+Qpdq2CR1AIEmS0/wiAolItJ1wtwodQCD95q+q83snCauImlNdZzzes8/fa/neKdbktB1x92TPy+59/q7kJKEUkZz6Hf9V9cI+f69lcsr6sV5WB/A4YBdsmJKiTACOAg7CTpKZ2Ava5sjnq7F3GA9hPb3/gPV1yvJZ8L59/v6XDLfVzSDFXIikOtaRzc3kC7BrUlFzlW0GvBNrwr4L9sSm+Wh9HBve767BOgjfh/V1+jbZDjjdLzldleG2uhlNXHPEDUC2/Zxc1tOtvDnDL9rLJtgkgMscYlwEnE52cyb9wSGGrIvriNVJuB5rKuFLr47xWc6EW1RfpxNwn65+JfC+jOKY7RhD1iWv9geu/ZxWQbzJ6VteP0ky44HLMoj1FmBbz1imY3dooQ9SJSeVTqWo5HRaj+1k5XMZxfr5DGL5WEax+JbYktNqiDc5zSHfCyXATzKM9yb8Zpp8X4ax+BQlJ5VOpVcXhiyT0197bCcLvUZjcCnv9YznrxnH41qUnFKWgz1+lH4OySHe9zjGMoi9xwp9gI6g5KTSuRRVcxrB3v/kYSv8ZqXtVJbi3gR+14xj8SmxJac1sbbWa/K9K+nlhBzW+c+Oy70R2CPLQERK7J05rfc9ZN/ybRLu15J3ZBlIFcVcc1pD/w5qrh7PId65DnEMALfmEItrUc1JpVPp1So165rTArJrZNTqzxnH2SwurWg3w2pdofdrs+RVc3I9NjKvOQ04lIN7rG8McEbGMTbl0dG3XyfaTt5A7054T2Anqstv61JGHL6D1NsoOh9Lg2yYwmIz7EbzQGwus5U91tds4p0130ZLWa73w1itq5vlwI4Ud97H1IwccmhK7uo3Pbazlnx6jrs0HU9yx5fGZOCxPus8zvH7xUg1p/KWoQ7708eh9D4enqL3xdvFzT2251NuTRnHZvR/9/Uht68YHdea0xDEkZz2wQbw7LatP5D946Y8qvg3pIzhawnWl3eLxSIpOZW3rO2wP319q882P5fx9s7psz3Xcl7KOL7bZ303UJ0RclyT01qIIzkB/LjP9t6e8fZO7LM9l3Jmiu0fRP/f/mXuXy9KSk7lLXkkp+nY04Zu21yNzWqdlZ2xO/Ksf5ddU8Twj33WNwTs5f4Vo9Or0tH3eIslOc3GDsZu21tAts+Mx2KdZ7M6SB8leUug6cCDfdZ3sef3i5HrsRZ7q9IySnvRyOudxPv7bPcmsn1Z3297acspKbY9hf4Nsf7D58tFyDU5rYN4khPYi9Je27yCbC9UOwG39dlmkvJ7bCy+JEZj36PX+lYCs3y/XISUnOKR9qKR1TTt7UYBt/fZ9hcy3uYJWKdin3N+NXBSim0OApf0Wed9VG8uu8okpwn0byDwiYy3uSlwNHABcA12Z7Owy7aXYa3nbgAuwsbke17K7X21y7pby6d8vlDElJziEUtyAngJ/d9NuPYh7GYbrMXcL4C/YQO7dmvavbTx95sbnz+F5DejTV/qsu7WcojPF4qUa3JaD3ElJ4A39dnuOuC1OW4/Tx+k/+96N9aEvoqUnOKR9qIxnHM8n++z/ZVYM/Qy+hf6/74/DhZdvlzP+SiTE8D3+2x7BTZ1d5l8gP6/9TDwilABFkDJKR6xJaex9H/EvhTYP+c4snYi/WuFy8lvsIHQKpecJmI1iF7bXwMcm3McWfkoyX7Tb4cKsCBKTvFwedySt12waWh6xbCY8jz++hTJftdPhgqwAK7n/LDPwnl7PlaV7xfHufiNBp6nAeDTJPs976H6M90qOcXDJTkV0efu1QliWwO8rYBYXI0Cvkyy3/QB7L13VVUyOQG8jmSj2v6V9A0T8jYNe3ma5Leci7UcrDolp3jEmpwATk4Yz/nEd2HfGbiW5L9pHgNQx8TlfP97jnFtTVGU40l2UVuN1VJiaIr5YuBhkv+WF4QJs3BKTvFwOe+L3A9nJozpVmyEmRgcT7rBXNdR/acllU5OYE03k8b1MHAMYYb9GQd8hvQz2i6lmv2a2ik5xcPlvC96SJ1+/R5bL/LnYp1cQ9gbtxm154UItmBeycl17KOivZt0E1fdgj0WLOLCNgobXumhFPG1lwew92xVpuQUjzIkJ7BHfEljnQ/8K9kPGNvN9ljLYtcb/BGsI2+Vj+9aJCeA12DNLtPEeS92AGQ9yRjYe6Iz6D8UUdKyFrgUO+DfTXUGf2xScoqHywU1rzl/+jmGdLMILAD+k3xmMxiDjY93MemfkHQrc4GfYQPd7pdDzKE0p+BxTk6u0+iGsi9wf4+4upWVwI+Ao7Cx7VzsgHUA/hL2rDvvgUwvB7ZwjDVGSk7xKFNyAngOcFeXuLqVYeAqbPqJnR23Ownr/Pth4JfkM9VOe/k5bnPDxcYrOQ1gycnloAs5lcMkbJj6tzsuP4w13X4Ae0c1F7sLak6ANgm7Q9oSG6ZkW2wa9SyeaT+NDYG0O8lm+3wcG17p+gy2HdowbsfNJuTfCbRu1pM+6Y8hn9HJk5qI1YhOxO04uh973H8XNkTZIqwh1QAwtbH+6dhEpDthCW1b/G+OVgP/19j2ydh8Tv08AbwZG1KtrAbwPG/LVnNq9U/AHPK/k/EtT2PDs7QO/z8Fm945yfJrqMakg6o5xcOl5hTLsFoH4fb0pOhyL/Benv0OLE3jrrVYja2svB/ruc5vEotJwNn0nm4jVJmDHVzju8T+DynWNQx8zPVHioSSUzzKnJzAhjv6GP1HlAhRrgCOpPNxO5P058F/Uc5JR2ufnJpmY8P/ZPWS0qc8gN0x9esguJnDur9EeS/WSk7xcElOY4NE2tt07OK9grDn/BDWXzFJnyuX6eIvIN6RcLoZxO83db6Yx2prrCbVbdqLvMowcDX2nDhpK7sBbKywtNv6EXHdxSal5BSPqiSnphnYeZ+mE2wWZQU2VNEOKWL9rOO2fkOy99SxUHLqYizWsu5HpG9+nqbciQ3c6Dr8UL+pArqV39L9cWGslJzi4ZKcYhsqqJPNsI7wz5BvUnqmsR2XVnWzcX/Xfy3WeKMMlJwSGA8cih1MV+D+CGAYe2T3P9jAkztkENsE+s8E2q1cSbmGP1FyiodLcirTXftY7CnGxcASsktIPwLegP+Tiy96xHETyVr8heaVnAawhgQu1fUyvqBrGsCaiO6C3cVsjQ09NK3xzzVYAluBvXB9BJtC+T7s98raLsCNuDVV/wtwBHYCxk5NyePh0pR8MtbPp2wGsScbu2GP/7Zgw3cf5Nnn3aKWf1+LJaSnsJZ3j2UY01js3H2B4/I3A4dhHY5jtQmN6dZd1aHmVAZH4j4Myl8pR6c91Zzi4XKshRq7rqpm41eruwvrkxWrTXD/bsMAqxwXlux9EvedeQvxjyah5BQPl+RUhkdJZXMMfiPN3IbVBmPkk5xGQMkpNl/BfWfeSdx3UkpO8XBJTmWonZfRR/C7iMd63is5VcwgcBHuOzTmqr6SUzxcklOsd+hV8F/4XcjvwoZbi8kolJwqZwzwO9x36j1YI4/YKDnFwyU5xXrTUwUDwPfwu5jfTVwJyic5DYMNdqrkFJ/JWEMH1517J3EdqKDkFBOX5DQzSKT1MQb4PX4J6hbieTfoXXNScorXVPwS1N3EVYNScoqHS3LaLkik9TIe67/oc1G/mTgS1Gjcv8MwuHdIlWLMIP08Nq3lduJpxafkFA+X5LRjiEBraBLJZyzoVq6juBmBu/FJTiOg5FQGvgnqbuJ4X6DkFA+X5OQ6RJekNwWbw83n4n4FYYec8q45uY47J8XaFr/p4G/FRsAISckpHi7JaXaQSOtrGvA3/BLUJYSbwdi75qTkVB7bAQ/hvrOvI+z4aEpO8XBJTrsGibTefN87j2DTbYQ4h8Y4xjtCo+a0zHFhCWMWNtaf607/Bcmn9MiaklM8XJLTHkEilS2AO/BLUGcXHrVfchoB1ZzKaHv8pqn+PmEG7lVyiodLcnpukEgFLEHdit/F/t0Fx6yaU01ti42S7rrzP1t8yEpOEXFJTnsGiVSaNsf6Mbme86uBlxYYr3fNyXXmSAlva9xb8Q1jI6EXSckpHi7Jae8gkUqr6fi9g3qS4vpAjfOIU8mpAmZgIxO77MNnKLYFn5JTPFySk+vcQ5Ktadj8b64X/R8UFOcEjxhHwH0+EYnHdNz7RPxbgXEqOcXDJTm9KEik0skU4M+4X/gPKyDGyR7xKTlVyETcBou9t8AYlZzi4ZKc9gsSqXQzHvgNbufUrwqIb6pjbH/PMYtdF5TojAF+TLr9OFRgfEpO8XBJTgcEiVR6GQNcSPp9uR67oc3TdIe4/l500lfLEHAscF6KZZbnFItUT6j+cdLdEPAWbJLSNAaxmleevI8X1Zyq6VSS3R1fXmBMqjnFw6XmdFCQSCWpk4C1JNuXtxcQz1YJY+maYxa5LijRO5L+rTGPLjAeJad4uCSnQ4NEKmkcBsyn934cAg4sIJaZfeJQcqq559F9wNi0jwJ8KTnFwyU5HREkUklrK2yYsm6J6biC4tiuSwyJc8xC1wWlNKZhU0CvA+YBlwKvCRCHklM8XJLT64JEKq6OwqbNaO6/uyimxtS0I27nu5KTFE7JKR4uyelNQSIVX5sTZhbjnfFITs053kVE+hkdOgBxMj/Qdn1a640M0hj9VUSkDyUnScPriYeSk4gkNSZ0AFIqPjWnASUnKQMdo3FQzUnS0GM9EUnN5V2zkpOk4f1YTw0iJGY6PvOh5CR58xq+SDUnEUlK75wkDTWIkEpTzSkfqjlJ3lRzkkpTcsqHkpPkTclJKk3JKR5KTpKGHuuJSGou573eOUkaqjlJpanmFA8lJ0ljnM/CakousdPxGY+8Z06VavGaBl41J4mdklM+XH7XCZlHIVXmdbwoOUnslJzyoeQkefOqaSs5iUhSXo9ppHZUc5JKU80pHy7n/eTMo5Aqm+KzsJKTxE7JKR4zQwcgpbKtz8JKTiL15JL0twAmZR2IVJbXzYxPcnq3z4aldlx7i6vmlA+X33UAOC7rQKSydvJdwXXYgZq2DAMn+W5camEycAlux9myAPHWwRLc9sdc9O5J+tsZt+OrNb/wF48VrEc1KOltb+BB3I+xpcWHXAuLcd8n/x0gXimXr5NBcrracyVKUNLJtsAZwCr8ji8lp3wswm+/nI76PcnGtgfOx+/YGgGGB4CrgJd7BjQMnAh8y3M9kq8JdB4fbQobvxPahM6PbzbFxswajfV7mYp1tpuIvQDdAZgF7Ia9o/C1FM8mqdLRQmCa5zrWAA9hj/qexG5ElgNrscex67D9t54NNbVFjWWbn+ukuUwni7r8/1bNbYuZSOcR5Tud9wPYOd1uFNYYpvnPydh5PwnYhg3n/R5kc96PDAB/BA7KYGUieVhC55NF/GSRnETyMqKBXyV2Oj5Fakj9nCR2Sk750O8qUVNyEqknnfcStUH04lDipjv8fGTx0lokN4N0bzHTzx3AjRnGItV1E3C347JKTj4H12sAAAWASURBVPlQzUmiNgr35PQx4LfAdGAXrEXVlEZptgJqNjcGa3Y4tvHvzSaM7c2VJ9N93vnW5duNIV2fizK3UkrSlLZpBTDU5W9rgJVd/raeZ/cvajbtHcZaz7Uv39oseFHjM0uw5sP3AwuAVwO/ShF7k5JTPtL+rk8B38sjEKm0j+E+dBkX4tZJ6jleIUvd7InbcfZMiGBr4GnS7Yc7w4QpJbcWx064g3S/s+7nab+YpWbmOS6nx0/5SPu7aqJBKZTPO6duj4REOnEdhsj1+JTe0v6umipDCuXTWq/b8CIinbjWgNZkGoU0pU1OqjlJoXxqTnrcImm4Hi+qOeUj7eP80XRvkCSSOSUnKYprTdv1naj05vK7qvYkhfFJTmriK2mo5hQXl+Sk905SGJ/k5Nx2XWrJ9WZGNad8qOYkUfNJTqOyDEQqz/V4UXLKh8t5Py7zKKTqnCsxPq31uo3kINKJklNcXJKTnpZIGqPxTE6uNadOMyuKdKPkFBeXJvpKTpKGV47wSU5qVippuCan5ZlGIU0uv6tGMpc0xvgs7JOcZvhsWGpnvONyizONQppcflfVnCQNr9adPu+ctvbZsNTOVo7LpRmFXZJzSU5ed8JSO1v6LDyI+/Aw2/lsWGrHtaa9pP9HxIFLcnKt/Uo9eScn12f6h/psWGpnB8fl9FgvHy6/6y6ZRyFVNttn4UFsQjoXhwOb+mxcauVgx+WUnPLh8rj0lZlHIVW2v8/CPjWnacAnfTYutTELeJ3jsguzDET+zuV3PbxRRPoZC7zCdyUvwm2mwhHsfdULfAOQShsN/AX3Y2zn4kOuhZ1w2x+rgX9BXUmktxNxP+dHaLxrnuW5koeB6Tl/USmnQeCHuB9bq9BIJHkZxH5f130zFzgHeD06/+XZZgIL8MsrXxjA7oBW4teH4TLgCDQBoTzb+cBJHsvfDuyZUSyysduA52e0rgXAQ9jN6hzsseFC7N3WQqzLymosIYK9Tmj2sVyCjVo/gt4xlt0A8Fv83k+uAWaNavzL/cBuHit7Je79pUS6uTd0ABV3L9klp+mN8qKM1if1dQEwp1lb+l7ISES6uDZ0ABV3fegARNoMA1+EDY/yvomq0xKf34QOoOJ+HToAkTY/B+6GDclpPnBmqGhEOvgLcE/oICrubux3FonBeuDTzf9obQRxPnBD4eGIdHZW6ABqQr+zxOJ7wJ3N/2gfAn9H4GZgaoEBibS7EHhz6CBq5ELgmNBBSK09BTwPa/UJbNx8/BHgONQkXMK5E+vAJ8U5AbgjdBBSW8PYMbig9X926tv0K+B9RUQk0mYO1l9OI5EXawnwKuDR0IFILX0auLT9f3brff83rPZ0SJ4RibR4CjgMeCB0IDW1DPgd8AY8J4kTSeHrwCdcFvwIG3puq6jkVe5DY+jFYhbWOTf0MaFS/XIeG7d7SOXt+I3BpaLSq/wMmIzEZDJwMeGPDZVqljXAe8nIC7Hn0aG/lEp1ygLsxkfidRz+A3iqqLSWm8hhvMzJwFewd1Ghv6BKecsQ8FU8p3CWwszAzvshwh87KuUtjwDvAkaRkMvzvucBHwBeC2zlsLzUzxpsBOzfAN/FDlQpl+2B44FXY3e+mgVb+lkD/An4NnAJdoOTmNfLKGAMNhLxOGAKdsBOwJqoT2n53LSWf5/Chibsk9iQSSdiE9O1GkX3lkPj6H6CTCb5PECt8fho/S6htU5NkERzyoJ2I3Qfc3Ed1sJrPbC0ZZvLGv89D2uBNw9rgbe282qkhEYBs7Fa1VZYLXgydg6Mx6bhmYpdHyZ2WH5C42/tup1DU/G/VrXqdV0Jqdt5mMYwvbtiLKP7DBLt141Vjf/Xeh1YiSWd1u2swBLP0sbnFmHn/WN49Jn9/yPzNoiKtKjXAAAAAElFTkSuQmCC;" vertex="1" parent="qmRgz9lJUut0-xWqPHnc-23">
          <mxGeometry x="61" width="131.31" height="140" as="geometry" />
        </mxCell>
        <mxCell id="qmRgz9lJUut0-xWqPHnc-13" value="&lt;b&gt;search-1&lt;/b&gt;" style="text;html=1;strokeColor=none;fillColor=none;align=center;verticalAlign=middle;whiteSpace=wrap;rounded=0;dashed=1;strokeWidth=2;fontFamily=Courier New;" vertex="1" parent="qmRgz9lJUut0-xWqPHnc-23">
          <mxGeometry x="36.65999999999997" y="10" width="60" height="30" as="geometry" />
        </mxCell>
        <mxCell id="qmRgz9lJUut0-xWqPHnc-14" value="&lt;div&gt;&lt;b&gt;search-2&lt;/b&gt;&lt;/div&gt;" style="text;html=1;strokeColor=none;fillColor=none;align=center;verticalAlign=middle;whiteSpace=wrap;rounded=0;dashed=1;strokeWidth=2;fontFamily=Courier New;" vertex="1" parent="qmRgz9lJUut0-xWqPHnc-23">
          <mxGeometry y="90" width="60" height="30" as="geometry" />
        </mxCell>
        <mxCell id="qmRgz9lJUut0-xWqPHnc-15" value="&lt;div&gt;&lt;b&gt;search-3&lt;/b&gt;&lt;/div&gt;" style="text;html=1;strokeColor=none;fillColor=none;align=center;verticalAlign=middle;whiteSpace=wrap;rounded=0;dashed=1;strokeWidth=2;fontFamily=Courier New;" vertex="1" parent="qmRgz9lJUut0-xWqPHnc-23">
          <mxGeometry x="196.65999999999997" y="90" width="60" height="30" as="geometry" />
        </mxCell>
        <mxCell id="qmRgz9lJUut0-xWqPHnc-25" value="" style="group" vertex="1" connectable="0" parent="1">
          <mxGeometry x="251" y="320" width="390" height="160" as="geometry" />
        </mxCell>
        <mxCell id="qmRgz9lJUut0-xWqPHnc-5" value="Indexer Cluster" style="rounded=1;whiteSpace=wrap;html=1;fillColor=#d5e8d4;strokeColor=#82b366;fontFamily=Courier New;fontStyle=1;verticalAlign=top;dashed=1;strokeWidth=2;" vertex="1" parent="qmRgz9lJUut0-xWqPHnc-25">
          <mxGeometry width="390" height="160" as="geometry" />
        </mxCell>
        <mxCell id="qmRgz9lJUut0-xWqPHnc-6" value="indexer-1" style="shape=image;verticalLabelPosition=bottom;labelBackgroundColor=default;verticalAlign=top;aspect=fixed;imageAspect=0;image=data:image/png,iVBORw0KGgoAAAANSUhEUgAAAVAAAAG0CAYAAABkPX9NAAAACXBIWXMAAA7DAAAOwwHHb6hkAAAAGXRFWHRTb2Z0d2FyZQB3d3cuaW5rc2NhcGUub3Jnm+48GgAAIABJREFUeJzt3Xm4JWVh5/FvLzRNN4sNiICyCAoIOBMliY64MEKMQQkZlGeMcTCaEXdbRw1xewTNGMw4KhKNqEFFjQsqIrjiEDQYJghBlAZ0WBqVRfat6b3v/PHem3u4fe699b6n3qo69X4/z1MPTfepOvWeU/U7b9W71ALyWAA8HzgJODzTe0jSfC4HPgJ8Adhc98YX1Ly9JcCLCMF5cM3blqRU1wF/B5wBrKtro3UF6DbAXwDvBB5d0zYlqW43A38N/AOwcdSN1RGgfwx8ENi/hm1JUhOuB94CfGOUjYwSoCuAU4ETR9kBSWrR+cCrCDXTaKkBegTwRWD3xPUlqSvuAF4M/CB2xUWRr18AvA34DLBj7JtJUgctB/4M2ARcHLNiTA10MfAx4BUxbyBJY+TzwMup2MBUNUC3B74GPCdxpyRpXHwbOB54aL4XVgnQZcC3CPc9JakE/4cwGGjOPqML59nIMkIr1RH17JMkjYUjgS8T+rjPaq5GpEXAOXjZLqlMBwJ7AOelrHw6MFHTcinw7PRySFJlRwJXUl9+vTZ2B15Z0xtfAxxH/WPuJWkuiwnBdyej59gGIiZFOpTQ+jTKG94FvHqyEJLUlhXAR4EtjJZp1xN6I81pW+CqEd/oa8CuIxZakup0BHAjo2Xbx+d7k3eMsPFNwMrRyylJWexKGGmUmnFbgN+dbeN7A2sSN7wOeEGNBZWkHJYC55Ieoj+cbcNnJW5wM6GhSJLGwVLgn0gP0WNmbvBQQhCmbOxNWYooSfnsCFxLWub9ZObGUqu052MXJUnj6Ymk9zg6emojT03cwF3Y2i5pvP0lafl3ydQGLkzcwGtyl0ySMltC+qX8H5C44mrsJC+pH44lLQf/mcQV39hIsSQpvwWEYecpWRi9wnrC8ChJ6ovU+T+iVzi/oQJJUlN2IlQOo/JwvgmVh7m0jr2VpA65D7godqWUAL0lYR1J6rrvxq5ggEpScEXsCikBel/COpLUdT+LXSElQOd91KckjaF7YldICdC1CetIUtdNECZVqiwlQOd8TrIkjbFNMS+2BipJ0zbGvNgAlaRp2Wug6xPWkaRxkD1Ao6q4kjRGsgfoloR1JGkcZA3QqCZ+SRozBqgkJTJAJSmRASpJiQxQSUpkgEpSoqxj4Q1QSX02EfNiA1SSpmUNUDvRS+oza6CSlMgAlaREBqgkJTJAJSmRASpJiQxQSUpkgEpSIgNUkhIZoJKUyACVpEQGqCQlMkAlKZEBKkmJDFBJSuR0dpKUKCrjFkduPCqdpQiLgX2BvYGdgQWTf//g5HILcDOwro2dUzGiMs4AVRsWAAcBh08uTwEeB2xTYd1fAz8HfgZcCvwIuCvPbqpABqg66ZHAc4GjgaOAXRO3s9fkcvTk/28BrgIumlwMVI0iOuMmIpZv17ab6ruFwO8B7wb+ldAAGXOspS6bgSuBDwN/AqzIXVD1yreIO96iXvyt5sqhMbQ9cAxwBuF+ZROBOd+yCbgMOBk4jOl7q9Iw55MxQM9vrhwaE/sBK4ELgA20H5jzLasJAX88IfClQedhgCqjJcBzgI8RGnTaDsRRljWEE+ZVhNZ/6VwyBuh5zZVDHbKMcGl+FnAP7QdfruV64DRCI1eVHgHqHwNUtXg08Grge8B62g+3ppc7CT8YLwCWj/hZanycQ8YA/WZz5VALpu5nXkzoHtR2iHVlWUu4x7sS2DP509U4yBqg5zZXDjVgIaFl+mTgGtoPqnFYNjPdqv+E2A9cnfd1DFDNYTvCPb7TCMMj2w6kcV+m7ps+nfi5JdQ9X8MA1Qy7Ai8DvkFoeW47dPq63Ax8nDDiattK34y65mwivnOHcvbX/sCxk8vhwKJ2d2devwZ+CPwbcAVwLXAHsBR4PPAk4BnA04ADW9rH+ewJvHJyuR/4LqHS8W3g3hb3S9VFZ1zML+w5te2mcjgMeC9hoo22a2PzLb8FvgScSAjIGLsBfwqcyXj0Rd0AfB94LWEcv7rrK8R9twboGFsMHAl8BLiJ9oNiruUewi2ENwCHUu+QyidMbvc84IEOlHWuZQthboCTiP/hUH5ZA/TrzZVDs9iO6fHmt9F+IMy1DHZMX5LjwxhiEaEmfhLjMbx0FXAqoRHKcfrti7oHSuSLv9ZcOTRgF+AEwq9jl2tYU/0lT6I79yl3Jox7P4Pu9zpYjS36bTNAe2JfxmOSjtsII3aOB3bI8UHUaKrf60mEwQJNTbGXstxO+FyPwWGlTcoaoF9trhxFOoTpk7urI4EGO5KP+/RwjyQEf9fH+N/F9I+Uw0rzMkDHyGLg2YTLttW0f6LOtjxIuPp4KeF2Qh8tBo4A/pYww33bn/lsy33AFzFMc8kaoGc3V47eWgYcB3yWULNo+4ScbbkN+CTwfEJfzNLsQ+h29F3Cg+za/j6GLQ8RejacgDPv18UA7aCpkUDnEg76tk+82ZZrCS3CT8NGjEE7AC8EPkPo3N/29zRsmepr+ipg9yyfQhmyBuhXmivH2JtqOT+P7jYCDd7PPDjLp9A/gxOwXEb73+F83+sBOT6EHssaoF9urhxjaU/gdcA/EZ7F0/aJNGx5iBDq/x14VJ6PoSiPA94EXAhspP3vd9hyOfAOnD2qiqwB+qXmyjE2HsN0d6OunkB3Ea4eTqD7XY3G2XK6P3P/KpyKby4GaAP2Bd4MXEJ3uxvdRHi077Po/kQifbQNYZjt6cCvaP94GLb8FHg7oRatwADN5NGEPpo/of0Df7blF8DfEJ7HPs79M/tmAd2f6OVywvH92EyfwbjIGqBfbK4cnbCE0OXoW3T3nuaVwLsJE3RoPOxPuIL5Ed08ri4lTM7S1z6/c8kaoP/YXDlatQ3hfuENtH8wD1um7mMdlKn8ak6X5zlYT2hwPJ4w0KAEX8UAHclBhIBq++AdXDYBFwGvJzRaqZ+WE54CehbdG2RxMWX02shaA/1Cc+VoxZPpTuvpeuA7wCsIY7ZVlsWEaQD/nu5MW3gN/Q9RAzTRwbQ/yuQhwpyrLwEekbe4GiMLgWcS5kxou0X/CmD7vMVtVdZL+M83V45G7Ud4IFgbB+R9hFsjL8TJITS/BcBTCJOeXE87x+w59HeorwEaaSfg/9HsAXgn8A/A8/DpjRrNkwjdo66m2WP4LU0UrgVZA/RzzZWjMZ+imQPuZuCjhM7VpbRoqlkHA++kmb6m6wltBn2TNUDPaq4cjXgcefvh3UK4b+XsRmraocBfA9eR7/j+Gc0966opWQP0s82VoxHvof6D6m6mH8VgTVNdcAih33COfs2nNFeMRhigEa6gnoPoPkJoHo3Pr1F3LSTMuv9xwn34Oo79DYT7sH1hgFa0PaNdvq8nPObiOMqcsV3jbRvCVdI3Gf021k8b3vecsgboZxorRn6Hk3aw/IIwTnjX5ndZymJPQkv+/aSHaF8mr8kaoJ9urhzZvZT4g+QcnBpO/bUH6Q837EsjaVSA9qXQKfZPWOfThMclSH10K/D+xHX7UgONEhugE1n2oh17JaxzVe17IXXLD9regZZF/RCUXANNuYd5W+17IXXLdYQG0lh9yZKoSmLJNdDdIl9/L2GyD6nPJgiX8rH6cgmftQbalw8J4mfbTjmopHF0e8I6fcqGyvpS7U4RO/PR3Vn2QuqetQnrGKCFiZ3TcF2WvZC6J+VYN0ALs13k6w1QlcIArajUAF1KfIf4lJZJaRwZoBWV2oi0LGEda6AqRckBaj/QClIenWENVKWwEakia6DVGaAqhR3pK+pLoWMZoNLsUuZ76EvlKkqpAZpyCe8kIipFn0YcxnIkUgUpT8Is+aBSWbYkrNOXypiX8BWkPKso5aCSNF5sha8gZVJka6AqRcqx3per0ygGaHUGqEphgFZU6j1QL+Gl2RmgFZX63PKu1ryPAZ6f+T3OB86LeH0T+5SiL+WIFVvuFCU3IkUpNUC7WgM9DDgx83vcStwJ2MQ+pehLOWLFljuFNdCKvISvznugKoUBWlGR1W7SGpG8B6pSlBygdmOqwFZ4aXYlB2iUUi/hUwJUKkVKgPalMuZIpAoMUKlefalcRSk1QEvtfSBpbk4mUoE1UKlefcmGKKXWQEstt5RLkedUkYWm3HJLqpFBIqkORV7CxzamFPkhNehsYFXm97g68vVN7FOKvpQjVmy5m1JkZazU1uiu/hCsonsneRf3KUVfytFVXT2nsiryV0NS7QzQCor8kCTNq8hsKLUGWuSXLWXUl3PKyUQkNa4vARrFS3hJdSgyG0qtgRb5ZUsZFXlOlRqgkuplgFZQ5IckaV5FZkOpNdAiv2wpoyLPqVIDVFK9DNAKivyQJM2ryMpYkYWWVLsiK1elBmiRX7aUUZHnlJfwkupQZDaUWgOVVK++BGhUOZxQubrjgYPb3gmpAYckrNOXyljUc+GdULm6gzFApb5zNiZJjSvy6rTUAC3yy5YyKvKc8h5odWdPLlLfHT+5xOhLZcx7oJlcjQGqMqQ0IvWF90ArKLkmLeVQ5DllR3pJdSiyMlZkoSXVrsjKVakBWuSXLWVU5DnlJbykOhSZDaXWQCXVywAtSJFftpRRX84puzFJalxfAjSK90Al1aHIbCi1Blrkly1lVOQ5VWqASqqXAVpBkR+SpHkVmQ2l1kCL/LKljIo8p0oNUEn1KjJLvISXVIcis8EJlbslZSJbVZMyIXYXv4+uTuxdZDY4oXK3HEL3Tti+SJkQu4vfR1cn9i4yQIu8b0GhX7aUUZHnlPdAJSmRASpJibyEl6RpWWdjMngkDVNkNpRaA5VUr6jnqXeYNVBJSmSAVtCXX0upK/qSDc5IL0lNKLUGKknDRGVcqWPhu3oJfzawqu2d6KmrE9bp4veRUo4m9CUbojgWvltW0b0TtmR+H9V1tVISy0YkSWpCqQHal19LSfWyFV5S4/pSuYpSag1UkobxHmgFXsJLGpmX8JI0zRqoJCUyQCvwEl7SyLyEl1SHvlSurIFKUhNKDVAv4SUNY0d6SWpCqTVQSRrGe6AVeAkvaWRewkvSNCdUriClBvrfgMPr3hGpg/ZLWKcv2RCl1ABNsR9pB5ak8WErvCQ1odRGJEkaxnugFaTcA/0ccFbdOyJ10AmEe/4x+pINUXyoXHU3AD9oeyekBjw9YZ2+dA20H6ikxvUlGwzQCvryaympRbbCS9I0a6CS1IRSA9RLeEnD2JFekppQag1UkobxHmgFXsJL9epLNkTxEl6SplkDlaREBmgFW9reAaln+pINUbf3vISXVIe+tCtEZWKpNdDNbe+ApPFXaoB6CS9pGDvSV2ANVKpXXypXUUqdULmrAZoykW1uKRNJx5ajiffoCyf27pBSA7SrN7z3A45qeydm+HHCOrHlaOI9+iLls1J1XsJX0NUaqKR22Q+0AhuRJI2s1AC1BirVqy/ZEKXUALUGKtWrL+eU90ArsAYq1asvARrFGqikOvTlnLIRqYK+fNlSDinneV/OKS/hK0j5svvy4yHNJyUXDNC6N95hKfdAS/2xUXlKroFGKTVArYFKsys5QKPKHjuUsy+6WgM9C7i4gfeJcUPCOrHlaOI9+iLls4qVEqBdHR6dValj4btaA72BZk6Q3JooR18+qy5KqSz0pWug90Ar6GqASl1gDbSiUhtGUgK01M9K5fEeaEWl1kBTLjf6UnZpPiUHaJRSA9RLeGl2JQeoHekr6GorvNQFJXekj1JqDXRjwjqldvlSeUqugUYpNUDXJ6yzpPa9kLpp24R1+hKgWZ8L3xcpAZpyUEnjqOQAjWINtDoDVKVYmrDOptr3YgwYoNUZoCpFSoCmnFNdZCt8BQaoNDsDtCJroNUZoCpFyrHelwCNUmqAriF+7G7Kr7I0jkqugUYpNUA3Aw9GrvOIHDsiddCOCev0JUC9B1rRfZGv3y3LXkjds3vCOutq34t2eA+0otgA3QVYlGNHpA7ZFtg5Yb2U0X1jr+Qa6D2Rr19ECFGpzw4kvqJwC3akr6RPNdBfJ6yzb907IXXMkQnrXFX7XrQn6yV8n2qsqxPWeW7dOyF1yG7A/0hY75K6d2ScTEQsd7a0jzmcQFzZJwjD1b4DvAjYrvldlrLZH/gl8efEBPD0FvY3l+uJK3vUi+9urhzZ7Um4b5NywEwA9wKfBI7Cqe40npYCRwNnAA+Qdh78hn41rmYN0NiGl647j/QAHVzuIITpc4BtGi2BFGcF8BLgbNJDc3B5X7O7n90NZAzQ2K4/XfdEQqf6OkJ0sJZ+FnAMziGqbtgbOJFQYVhPfcf6OuDRDZajCTeSMUAfaK4cjTmbegN0Zph+Gng+DgVVs54EnAxcQb7j+7SmCtOgrAG6prlyNGZfwq2JXAfZ4I/PV4A/BXZqomAqymJCF6SPEHqY5D6eb6Wfw5tXkzFA1zZWjGa9kPwH3OCyntCafyJpw+YkgB2A44HPE652mjp+txBuUfXRajIGaF/Guw7zUZoN0allM3Ax8BZCVxJpLnsQfni/TTgf2zhm/2f2UrbnJjIG6IbmytG4RYT7lW0ckIPLKuBUQt+6Po38Urr9gJWEH9q6Gz1jlzPp14CamX5FxgDt+3NPFgKfoP0QnVpuBD4IPJN+9bXT3BYChwN/S3rn9hzLh+h3eELmAN3cXDlaswB4I+1dHs223A58Cngetuj30XaE+4qfAn5L+8fb4PJL4MX5it4pWQN0orlytO4A4BzCNF1tH8Azl/uBLxOGlNqiP752AV4KfJ3ppyR0ZVkLfAn4Q/pf6xz0azIHaEkfJoQJFl5PmDCh7YN62DLYov+oTJ+B6rMf8CbgIsItsbaPn8FlM3Ah4Vhakan8XZc9QEse9/044G3AZbR/sM92AlwMvBlb9LtiAfC7wHuBn9H+MTJz2UKoHKwkzA9Rut+QOUAdnhg8ltD16BJGm5Qk53Il8B7gMGzRb9ISwrwIHyW+RtPU8lPgrwjHsaZlD1Af77u1vQi/4D+i/W4msy2/Ak4nzB7lhCf1W0FoaPkyYc6Itr/vYcu1wCnAEzJ9Bn1wM5kD1Hkw57YH8GrgAkK/2bZPmmHL3YTRK8cTRrMozb6EH84f0M3GxgnCbPGnECbO0fxuIXOALmusKONvBSGkziK0nLd9Mg1bNhLum66kfzPr5HAIYZKOy+jurZtVk/t4cJZPoN9uJXOAbt9YUfplKeHy+TTiv6Q2Tr7DsnwK42dbpr+3rt7PHPzeDsryKZQje4Du2FhR+msRYajmqXRrpMnM5XpCcJQ26/7OTF85dPV+5mBoPj7Lp1Cm28gcoH2cwqptTya0lnexm8vUcithmOvR9HMk1P6EB6pdRPf6Z04tm4AfAm8AHpPlU1D2AC21g21T9iXcj7yA7jZMrCHMbn4iYaDBuBq8n9n2Zzrbso5wLKwkNFAqr9hhtNFf6C6NFUW7Ep4eeh7dG5s/tWwiNEKdRPcvJZcTxpufQXx/vyaXqR+oE3CobtOyB+gjGyuKBi0jnPxnEZ4I2vZJPtvSten4pqaCu4B6nwdU93In08/Ssq91e24nc4A63rp92wJ/RKhJxd6zaXK5gTAF2hE0Nx3fjsCxwMdo5tEWoyw3Ej4fpyvsjuwB6iMoumUhocvRycA1tB8Ksy13EZ4JdQL1dt5fNFn+k+h+LXOC6Z4NXamh6+HuIHOA2tm6254IvBP4Cd3t6P0QcC7wcuJvCS0j1NjeDpxPdwcoTC2bgH8G3kqYjEbdFhWgCyb/EGMvwg14dd9jCJezxxIuo7s4Bn4zYUKWcwldiK4iNJhtS2iwPGhyOZgwq9GT6WY5Bj1EqA1/k9AYdEe7u6MIdxAabyuL/UXdu8adVXOmWqC73gg1rstUI5DzC4y3u4j73qMPlH0aK4pyWUy4B3ca3e7O0/Wl1JFafZY9QJ0/sH/GoUN5F5bNk5/RyThXQF/dTeYAdabzfnss3R8J1eSylumRQM7Y3n/ZA7Tro01Un10I3Y6+AjxA+2HW1JKry5W67x4yB+iBjRVFXbIcOA74LPH3icZh+QXwAezUXrrsAep8gxqcju8XtB9+KcvURNIn4cTDmhbbQyX6wPNg00yHEILoYrrbeX+CMOx1qquR89pqmNj5X6MPwkMbK4rG0d6Eae7Oo/1hlZt4eKu5Qyc1n+wB+h8aK4rG3QrgJcDZNNcI9Vvgc8CLCDPLSzGyB+h/bKwo6pPBZ0LFPjp2ruV2Qm33JKxlanRRcyukjIV/MnBFXXurIi0EngL8CfB7hBm+9mDux8VsIDzU7UbgSuBywuX5dcQfw9Js7iei61rK8LOFCetIg7YQJhC5ZMi/LWA6SB9BmJhjA+HSaksje6eSRV3BGKDqmglCXzwG/is1JSpAU8LQAJUk0sLQWWck9VX2GmjXJ7OVpEZYA5WkadZAJakJBqgkTbMGKkmJDFBJaoIBKknTstdAbYWXJKyBStIg74FKUhMMUElKlBKg29W+F5LUDdkv4ZclrCNJ48AAlaQmpATo8tr3QpK6wRqoJCXKHqDWQCUJa6CSNCh7DXSnhHUkaRxEPSI7JUD3SFhHkrpuCQ3UQPeIfRNJGgMvSVlpImHZuYadlaSuWABcRWQWpj7j/XGj7q0kdcjzgENiV0oN0KMS15OkLvrL1BVTLuFXAYtG219J6oT/RFoOTjDCin/eQMEkKbcf0EKA/gantpM03v6Q9AwcKUAngDfnL58kZbEtCS3v1Biga4DH5y6lJGXwPkbLv+gAXTPk735Iemu+JLXh94GNbJ1nDwz5u9oC9GPAZUP+fmXeskpSbR4J3MTWOfZvwFuG/H1tAfpBYH/gvhl/vwE4ImOBJakOi4DvsXW23QDsDrxmyL/VFqAfmtyJFw35t9uBx2YqtCSNagHwSbbOrjuAAyZf89oh/15rDXTKqUP+/efAipoLLUl1+BuGt+s8deA1rx/ymiwBuhA4d8hrrgB2q7HQkjSqd7B1Vm0EjpnxupVDXpclQAF2AH425HVXA3vWUGhJGsUC4H+xdUZtAV425PVvGvLabAEKsA+weshrVxO6CkhSG5YAZzI8PF81yzpvHvL6rAEKsC9w45DXryfcU5CkJu0B/Jjh4TlXJr11yDrZA3Rqh4f1EZ0g3Cvdp3LRJSnds4Gb2TqHNgAvn2fdk4asV1uA/u953nw58KVZ1l0DvAtYOl/pJSnBDoTBPlvYOn/uAv5zhW28bci6jQXolFcDD82yjdXAGycLK0mjWgy8gjBD3LDMuZLpfp7zGdZa33iAQphk5IdzbOte4P0kTKMvSYTZlF4GXMvwjNlEmDBkScQ23zXLthoPUAhdCF4MXD/Pdq8G3kNotd8l8j0klWVnwqX2LcyeKVcSZpqP9e45trnVsniUUlQwAfwj8FVCt4F3Egbyz/QEQvK/a/L/HyQMDb0XWEu4HXDv5H/XD6x3z4ztPED41ZmyFlg38P+bJl8zaOY25rJucpt12AzcX9O2SvcIxu9R28uJqxl1wRLCfrfpGYSGoNn242ZCjnyWcC80VtTMcrkDdMoG4CPAZwj9rN5AOOhns/3kIklV3EG4Qj6dUNFKFRWgsfN4TkS+fqb7CVXkvQgNSbeOuD1JZbsDOIXwqPX3M1p4QuYArcuDwGmE2ZteSWg9k6Sqbgf+ijCI52Tqux3WyUv42awHPkG4X/EyQgdYSZrLj4BP8fD2jbqMVYBOWQ98fHKRpLZ0+h6oJHXZWNwDlaQuMkAlKZEBKkmJDFBJSmSASlKiqCHBtsJL0jRroJKUyACVpEQGqCQlMkAlKZEBKkmJHAsvSYmsgUpSIgNUkhIZoJKUyACVpEQGqCQlyhqg4/bsbUmKYYBKUiIv4SUpkTVQSUpkgEpSIgNUkhJFZeLiyI13IUAXAI8F9gceAWxDKPR6YA1wE3AtsLmtHZQ0tqLbhSYilg/Xtpvx9gFOB+4dsl8zl/uBz0+uI0lVXUhcJka9+LTmyvEwf0y14Jy53As8u4X9lTSeLiIiY8bhHugLgHOAnRLW3Qn4NnB8rXskqa961Q/0GYRL8VH2c1vgC8BzatkjSX3Wm1b4nYCzgaU1bGsbQojuXsO2JPVXbwL0FOBRNW5vV+D9NW5PUv9EZVxXA3Qf4LUZtvtnhO5PkjRML2qgL2b+PqpXAa8BDptcXgusmmedRcCfj7pzknoraz/Qv69tN+d25Rz78AAhLIcVdCHweuDBOda/PPO+Sxpfl5OxH+gZDRRgCbBplvf/DfA7FbbxpMnXDtvGJkLLvCTNdAUZ+4HGDv1MsS/hUnum24BnAT+tsI0rJl/72yH/tmjyPSRppqz3QJsI0GEd5jcCxwDXR2znesIIpo1D/m3HhP2S1H9jH6D3Dvm79wGXJWzrUuDUIX+/IWFbkvovayPSl2vbzdntBGwZeM97gB1G2N6OPHwc/RZCn1BJmukaxvwe6H2Ee5hTvktoeU91/+Q2plwH3DnC9iT1V9ZL+G0iX5/qOwN//lUN2xvcxiU1bE9SP439PVCATxImSIZ6Rg49fuDPX61he5L6Kes90O/XtpvzO23yPe9jtAlFljHdsf5qhneRkiSAG8nYkf7C5srBLsANk+/7yhG28zqmG4+eW8N+Seqvm8gYoD9qrhwAHEpoBPoVaX03dwJuJuz7B2rcL0n99GsyBui/NFeOf/cHhEvwlGGkZxL2+0y6P3m0pPZNVbiyBOilzZXjYZ5C6Hp0dMQ6Lyc8pXNllj2S1Ee3kjFAf95cObZyAGFW+So1yScDn8CnckqK81syBmjMWPQ2rWh7BySNpTuIyMTY+4Lb1befWd3T9g5IGktZO9Ivi3y9JI0TA1SSEmUfC9/UcE5JalrWAAVroZL6ywCVpETZA3SUyY0lqcuyB6izuUvqKwNUkhJlD9B9E9aRpK7bhgYC9LCEdSSp696UslLMWPgJwgPebEiS1Cd7M/3kimyTiUwtb2ymTJLUiPOIz8EHIdQoY1e8G3hkI8WSpLyOI60i+QGA9yau/LkmSiZJGe37RcYNAAACzElEQVRI/GM8JoCHgN0hPDfozoQNTAAvzV8+ScrmLNKy78ODG3lL4kYeBJ6UsXCSlMt/JS331gKPHtzQUsKTL1M2djvw+GxFlKT6/Q5h4vWUzPu7YRv8i8SNTQC/BPaqvYiSVL+DiXx0x8CyBnjMsI0uBP41caMTwGqsiUrqtmcBt5Gec6fMtfHfBzaPsPHbgGfWVFBJqssi4G3AJtLz7WZg+/ne6IwR3mAC2EAYEpUyTFSS6vYM4KeMlmsTwDFV3mw5cHUNb/Zj4NARCi1JozgA+BKwhdHz7OMxb/xEQkfRUd90M/B14I+AAwnhLEk57Q18CtjI6Bk2AaxiluxaMMdOvAw4c+SibG0tsI7Qh3QjcD8haAef5T71b4NmPut9A6FFbFCV9TZOvi7GesIPSoypcsZ4aPK9mnQv4SDpmgnCvklVPQp4O/BKYNuatnk78FTgxmH/OFeAArwbOLmmHZHUDWsIFZC+WQ4sqXF764AjgX+Z7QXzBSjA6cDr6tojSRoDG4DjgW/O9aJFFTb0fULHUYdsSirBesIMTefP98IqATpBmCtve+Bpo+2XJHXafYTw/G6VF1cJ0CnfJ9w7ORL7eErqnxuAo4D/W3WFKvdAZzoC+CKTc+FJUg98D3gJYWrPylJqkhcR7odekLCuJHXJWmAloa96VHhC3CX8oAcJM9JfBzwdO8hLGj8XAP8F+FbqBka9l/kF4CDgI4Qkl6SuuxY4FngOcM0oG0q5Bzqb3YG3EkYBWCOV1DUXAR8idE/aUscG6wzQKTsBLwROIMyCkuM9JGkumwlzFP8CuBD4BnB93W+SO9x2I/Qf3ZFwv3UhIWAhjFVdNvnnHYDFk39eCmw3xzbn+/ftJl8zm2VUHyc7uF91m68co1hM2PdcVmTcds7PXMHM+SFyrxcz38LgHBez/XlqbooNhLk07p98j6k/30MIy+zDVf8/pbd/UgBL4LEAAAAASUVORK5CYII=;fontStyle=1;fontFamily=Courier New;" vertex="1" parent="qmRgz9lJUut0-xWqPHnc-25">
          <mxGeometry x="109" y="40" width="61.65" height="80" as="geometry" />
        </mxCell>
        <mxCell id="qmRgz9lJUut0-xWqPHnc-7" value="indexer-2" style="shape=image;verticalLabelPosition=bottom;labelBackgroundColor=default;verticalAlign=top;aspect=fixed;imageAspect=0;image=data:image/png,iVBORw0KGgoAAAANSUhEUgAAAVAAAAG0CAYAAABkPX9NAAAACXBIWXMAAA7DAAAOwwHHb6hkAAAAGXRFWHRTb2Z0d2FyZQB3d3cuaW5rc2NhcGUub3Jnm+48GgAAIABJREFUeJzt3Xm4JWVh5/FvLzRNN4sNiICyCAoIOBMliY64MEKMQQkZlGeMcTCaEXdbRw1xewTNGMw4KhKNqEFFjQsqIrjiEDQYJghBlAZ0WBqVRfat6b3v/PHem3u4fe699b6n3qo69X4/z1MPTfepOvWeU/U7b9W71ALyWAA8HzgJODzTe0jSfC4HPgJ8Adhc98YX1Ly9JcCLCMF5cM3blqRU1wF/B5wBrKtro3UF6DbAXwDvBB5d0zYlqW43A38N/AOwcdSN1RGgfwx8ENi/hm1JUhOuB94CfGOUjYwSoCuAU4ETR9kBSWrR+cCrCDXTaKkBegTwRWD3xPUlqSvuAF4M/CB2xUWRr18AvA34DLBj7JtJUgctB/4M2ARcHLNiTA10MfAx4BUxbyBJY+TzwMup2MBUNUC3B74GPCdxpyRpXHwbOB54aL4XVgnQZcC3CPc9JakE/4cwGGjOPqML59nIMkIr1RH17JMkjYUjgS8T+rjPaq5GpEXAOXjZLqlMBwJ7AOelrHw6MFHTcinw7PRySFJlRwJXUl9+vTZ2B15Z0xtfAxxH/WPuJWkuiwnBdyej59gGIiZFOpTQ+jTKG94FvHqyEJLUlhXAR4EtjJZp1xN6I81pW+CqEd/oa8CuIxZakup0BHAjo2Xbx+d7k3eMsPFNwMrRyylJWexKGGmUmnFbgN+dbeN7A2sSN7wOeEGNBZWkHJYC55Ieoj+cbcNnJW5wM6GhSJLGwVLgn0gP0WNmbvBQQhCmbOxNWYooSfnsCFxLWub9ZObGUqu052MXJUnj6Ymk9zg6emojT03cwF3Y2i5pvP0lafl3ydQGLkzcwGtyl0ySMltC+qX8H5C44mrsJC+pH44lLQf/mcQV39hIsSQpvwWEYecpWRi9wnrC8ChJ6ovU+T+iVzi/oQJJUlN2IlQOo/JwvgmVh7m0jr2VpA65D7godqWUAL0lYR1J6rrvxq5ggEpScEXsCikBel/COpLUdT+LXSElQOd91KckjaF7YldICdC1CetIUtdNECZVqiwlQOd8TrIkjbFNMS+2BipJ0zbGvNgAlaRp2Wug6xPWkaRxkD1Ao6q4kjRGsgfoloR1JGkcZA3QqCZ+SRozBqgkJTJAJSmRASpJiQxQSUpkgEpSoqxj4Q1QSX02EfNiA1SSpmUNUDvRS+oza6CSlMgAlaREBqgkJTJAJSmRASpJiQxQSUpkgEpSIgNUkhIZoJKUyACVpEQGqCQlMkAlKZEBKkmJDFBJSuR0dpKUKCrjFkduPCqdpQiLgX2BvYGdgQWTf//g5HILcDOwro2dUzGiMs4AVRsWAAcBh08uTwEeB2xTYd1fAz8HfgZcCvwIuCvPbqpABqg66ZHAc4GjgaOAXRO3s9fkcvTk/28BrgIumlwMVI0iOuMmIpZv17ab6ruFwO8B7wb+ldAAGXOspS6bgSuBDwN/AqzIXVD1yreIO96iXvyt5sqhMbQ9cAxwBuF+ZROBOd+yCbgMOBk4jOl7q9Iw55MxQM9vrhwaE/sBK4ELgA20H5jzLasJAX88IfClQedhgCqjJcBzgI8RGnTaDsRRljWEE+ZVhNZ/6VwyBuh5zZVDHbKMcGl+FnAP7QdfruV64DRCI1eVHgHqHwNUtXg08Grge8B62g+3ppc7CT8YLwCWj/hZanycQ8YA/WZz5VALpu5nXkzoHtR2iHVlWUu4x7sS2DP509U4yBqg5zZXDjVgIaFl+mTgGtoPqnFYNjPdqv+E2A9cnfd1DFDNYTvCPb7TCMMj2w6kcV+m7ps+nfi5JdQ9X8MA1Qy7Ai8DvkFoeW47dPq63Ax8nDDiattK34y65mwivnOHcvbX/sCxk8vhwKJ2d2devwZ+CPwbcAVwLXAHsBR4PPAk4BnA04ADW9rH+ewJvHJyuR/4LqHS8W3g3hb3S9VFZ1zML+w5te2mcjgMeC9hoo22a2PzLb8FvgScSAjIGLsBfwqcyXj0Rd0AfB94LWEcv7rrK8R9twboGFsMHAl8BLiJ9oNiruUewi2ENwCHUu+QyidMbvc84IEOlHWuZQthboCTiP/hUH5ZA/TrzZVDs9iO6fHmt9F+IMy1DHZMX5LjwxhiEaEmfhLjMbx0FXAqoRHKcfrti7oHSuSLv9ZcOTRgF+AEwq9jl2tYU/0lT6I79yl3Jox7P4Pu9zpYjS36bTNAe2JfxmOSjtsII3aOB3bI8UHUaKrf60mEwQJNTbGXstxO+FyPwWGlTcoaoF9trhxFOoTpk7urI4EGO5KP+/RwjyQEf9fH+N/F9I+Uw0rzMkDHyGLg2YTLttW0f6LOtjxIuPp4KeF2Qh8tBo4A/pYww33bn/lsy33AFzFMc8kaoGc3V47eWgYcB3yWULNo+4ScbbkN+CTwfEJfzNLsQ+h29F3Cg+za/j6GLQ8RejacgDPv18UA7aCpkUDnEg76tk+82ZZrCS3CT8NGjEE7AC8EPkPo3N/29zRsmepr+ipg9yyfQhmyBuhXmivH2JtqOT+P7jYCDd7PPDjLp9A/gxOwXEb73+F83+sBOT6EHssaoF9urhxjaU/gdcA/EZ7F0/aJNGx5iBDq/x14VJ6PoSiPA94EXAhspP3vd9hyOfAOnD2qiqwB+qXmyjE2HsN0d6OunkB3Ea4eTqD7XY3G2XK6P3P/KpyKby4GaAP2Bd4MXEJ3uxvdRHi077Po/kQifbQNYZjt6cCvaP94GLb8FHg7oRatwADN5NGEPpo/of0Df7blF8DfEJ7HPs79M/tmAd2f6OVywvH92EyfwbjIGqBfbK4cnbCE0OXoW3T3nuaVwLsJE3RoPOxPuIL5Ed08ri4lTM7S1z6/c8kaoP/YXDlatQ3hfuENtH8wD1um7mMdlKn8ak6X5zlYT2hwPJ4w0KAEX8UAHclBhIBq++AdXDYBFwGvJzRaqZ+WE54CehbdG2RxMWX02shaA/1Cc+VoxZPpTuvpeuA7wCsIY7ZVlsWEaQD/nu5MW3gN/Q9RAzTRwbQ/yuQhwpyrLwEekbe4GiMLgWcS5kxou0X/CmD7vMVtVdZL+M83V45G7Ud4IFgbB+R9hFsjL8TJITS/BcBTCJOeXE87x+w59HeorwEaaSfg/9HsAXgn8A/A8/DpjRrNkwjdo66m2WP4LU0UrgVZA/RzzZWjMZ+imQPuZuCjhM7VpbRoqlkHA++kmb6m6wltBn2TNUDPaq4cjXgcefvh3UK4b+XsRmraocBfA9eR7/j+Gc0966opWQP0s82VoxHvof6D6m6mH8VgTVNdcAih33COfs2nNFeMRhigEa6gnoPoPkJoHo3Pr1F3LSTMuv9xwn34Oo79DYT7sH1hgFa0PaNdvq8nPObiOMqcsV3jbRvCVdI3Gf021k8b3vecsgboZxorRn6Hk3aw/IIwTnjX5ndZymJPQkv+/aSHaF8mr8kaoJ9urhzZvZT4g+QcnBpO/bUH6Q837EsjaVSA9qXQKfZPWOfThMclSH10K/D+xHX7UgONEhugE1n2oh17JaxzVe17IXXLD9regZZF/RCUXANNuYd5W+17IXXLdYQG0lh9yZKoSmLJNdDdIl9/L2GyD6nPJgiX8rH6cgmftQbalw8J4mfbTjmopHF0e8I6fcqGyvpS7U4RO/PR3Vn2QuqetQnrGKCFiZ3TcF2WvZC6J+VYN0ALs13k6w1QlcIArajUAF1KfIf4lJZJaRwZoBWV2oi0LGEda6AqRckBaj/QClIenWENVKWwEakia6DVGaAqhR3pK+pLoWMZoNLsUuZ76EvlKkqpAZpyCe8kIipFn0YcxnIkUgUpT8Is+aBSWbYkrNOXypiX8BWkPKso5aCSNF5sha8gZVJka6AqRcqx3per0ygGaHUGqEphgFZU6j1QL+Gl2RmgFZX63PKu1ryPAZ6f+T3OB86LeH0T+5SiL+WIFVvuFCU3IkUpNUC7WgM9DDgx83vcStwJ2MQ+pehLOWLFljuFNdCKvISvznugKoUBWlGR1W7SGpG8B6pSlBygdmOqwFZ4aXYlB2iUUi/hUwJUKkVKgPalMuZIpAoMUKlefalcRSk1QEvtfSBpbk4mUoE1UKlefcmGKKXWQEstt5RLkedUkYWm3HJLqpFBIqkORV7CxzamFPkhNehsYFXm97g68vVN7FOKvpQjVmy5m1JkZazU1uiu/hCsonsneRf3KUVfytFVXT2nsiryV0NS7QzQCor8kCTNq8hsKLUGWuSXLWXUl3PKyUQkNa4vARrFS3hJdSgyG0qtgRb5ZUsZFXlOlRqgkuplgFZQ5IckaV5FZkOpNdAiv2wpoyLPqVIDVFK9DNAKivyQJM2ryMpYkYWWVLsiK1elBmiRX7aUUZHnlJfwkupQZDaUWgOVVK++BGhUOZxQubrjgYPb3gmpAYckrNOXyljUc+GdULm6gzFApb5zNiZJjSvy6rTUAC3yy5YyKvKc8h5odWdPLlLfHT+5xOhLZcx7oJlcjQGqMqQ0IvWF90ArKLkmLeVQ5DllR3pJdSiyMlZkoSXVrsjKVakBWuSXLWVU5DnlJbykOhSZDaXWQCXVywAtSJFftpRRX84puzFJalxfAjSK90Al1aHIbCi1Blrkly1lVOQ5VWqASqqXAVpBkR+SpHkVmQ2l1kCL/LKljIo8p0oNUEn1KjJLvISXVIcis8EJlbslZSJbVZMyIXYXv4+uTuxdZDY4oXK3HEL3Tti+SJkQu4vfR1cn9i4yQIu8b0GhX7aUUZHnlPdAJSmRASpJibyEl6RpWWdjMngkDVNkNpRaA5VUr6jnqXeYNVBJSmSAVtCXX0upK/qSDc5IL0lNKLUGKknDRGVcqWPhu3oJfzawqu2d6KmrE9bp4veRUo4m9CUbojgWvltW0b0TtmR+H9V1tVISy0YkSWpCqQHal19LSfWyFV5S4/pSuYpSag1UkobxHmgFXsJLGpmX8JI0zRqoJCUyQCvwEl7SyLyEl1SHvlSurIFKUhNKDVAv4SUNY0d6SWpCqTVQSRrGe6AVeAkvaWRewkvSNCdUriClBvrfgMPr3hGpg/ZLWKcv2RCl1ABNsR9pB5ak8WErvCQ1odRGJEkaxnugFaTcA/0ccFbdOyJ10AmEe/4x+pINUXyoXHU3AD9oeyekBjw9YZ2+dA20H6ikxvUlGwzQCvryaympRbbCS9I0a6CS1IRSA9RLeEnD2JFekppQag1UkobxHmgFXsJL9epLNkTxEl6SplkDlaREBmgFW9reAaln+pINUbf3vISXVIe+tCtEZWKpNdDNbe+ApPFXaoB6CS9pGDvSV2ANVKpXXypXUUqdULmrAZoykW1uKRNJx5ajiffoCyf27pBSA7SrN7z3A45qeydm+HHCOrHlaOI9+iLls1J1XsJX0NUaqKR22Q+0AhuRJI2s1AC1BirVqy/ZEKXUALUGKtWrL+eU90ArsAYq1asvARrFGqikOvTlnLIRqYK+fNlSDinneV/OKS/hK0j5svvy4yHNJyUXDNC6N95hKfdAS/2xUXlKroFGKTVArYFKsys5QKPKHjuUsy+6WgM9C7i4gfeJcUPCOrHlaOI9+iLls4qVEqBdHR6dValj4btaA72BZk6Q3JooR18+qy5KqSz0pWug90Ar6GqASl1gDbSiUhtGUgK01M9K5fEeaEWl1kBTLjf6UnZpPiUHaJRSA9RLeGl2JQeoHekr6GorvNQFJXekj1JqDXRjwjqldvlSeUqugUYpNUDXJ6yzpPa9kLpp24R1+hKgWZ8L3xcpAZpyUEnjqOQAjWINtDoDVKVYmrDOptr3YgwYoNUZoCpFSoCmnFNdZCt8BQaoNDsDtCJroNUZoCpFyrHelwCNUmqAriF+7G7Kr7I0jkqugUYpNUA3Aw9GrvOIHDsiddCOCev0JUC9B1rRfZGv3y3LXkjds3vCOutq34t2eA+0otgA3QVYlGNHpA7ZFtg5Yb2U0X1jr+Qa6D2Rr19ECFGpzw4kvqJwC3akr6RPNdBfJ6yzb907IXXMkQnrXFX7XrQn6yV8n2qsqxPWeW7dOyF1yG7A/0hY75K6d2ScTEQsd7a0jzmcQFzZJwjD1b4DvAjYrvldlrLZH/gl8efEBPD0FvY3l+uJK3vUi+9urhzZ7Um4b5NywEwA9wKfBI7Cqe40npYCRwNnAA+Qdh78hn41rmYN0NiGl647j/QAHVzuIITpc4BtGi2BFGcF8BLgbNJDc3B5X7O7n90NZAzQ2K4/XfdEQqf6OkJ0sJZ+FnAMziGqbtgbOJFQYVhPfcf6OuDRDZajCTeSMUAfaK4cjTmbegN0Zph+Gng+DgVVs54EnAxcQb7j+7SmCtOgrAG6prlyNGZfwq2JXAfZ4I/PV4A/BXZqomAqymJCF6SPEHqY5D6eb6Wfw5tXkzFA1zZWjGa9kPwH3OCyntCafyJpw+YkgB2A44HPE652mjp+txBuUfXRajIGaF/Guw7zUZoN0allM3Ax8BZCVxJpLnsQfni/TTgf2zhm/2f2UrbnJjIG6IbmytG4RYT7lW0ckIPLKuBUQt+6Po38Urr9gJWEH9q6Gz1jlzPp14CamX5FxgDt+3NPFgKfoP0QnVpuBD4IPJN+9bXT3BYChwN/S3rn9hzLh+h3eELmAN3cXDlaswB4I+1dHs223A58Cngetuj30XaE+4qfAn5L+8fb4PJL4MX5it4pWQN0orlytO4A4BzCNF1tH8Azl/uBLxOGlNqiP752AV4KfJ3ppyR0ZVkLfAn4Q/pf6xz0azIHaEkfJoQJFl5PmDCh7YN62DLYov+oTJ+B6rMf8CbgIsItsbaPn8FlM3Ah4Vhakan8XZc9QEse9/044G3AZbR/sM92AlwMvBlb9LtiAfC7wHuBn9H+MTJz2UKoHKwkzA9Rut+QOUAdnhg8ltD16BJGm5Qk53Il8B7gMGzRb9ISwrwIHyW+RtPU8lPgrwjHsaZlD1Af77u1vQi/4D+i/W4msy2/Ak4nzB7lhCf1W0FoaPkyYc6Itr/vYcu1wCnAEzJ9Bn1wM5kD1Hkw57YH8GrgAkK/2bZPmmHL3YTRK8cTRrMozb6EH84f0M3GxgnCbPGnECbO0fxuIXOALmusKONvBSGkziK0nLd9Mg1bNhLum66kfzPr5HAIYZKOy+jurZtVk/t4cJZPoN9uJXOAbt9YUfplKeHy+TTiv6Q2Tr7DsnwK42dbpr+3rt7PHPzeDsryKZQje4Du2FhR+msRYajmqXRrpMnM5XpCcJQ26/7OTF85dPV+5mBoPj7Lp1Cm28gcoH2cwqptTya0lnexm8vUcithmOvR9HMk1P6EB6pdRPf6Z04tm4AfAm8AHpPlU1D2AC21g21T9iXcj7yA7jZMrCHMbn4iYaDBuBq8n9n2Zzrbso5wLKwkNFAqr9hhtNFf6C6NFUW7Ep4eeh7dG5s/tWwiNEKdRPcvJZcTxpufQXx/vyaXqR+oE3CobtOyB+gjGyuKBi0jnPxnEZ4I2vZJPtvSten4pqaCu4B6nwdU93In08/Ssq91e24nc4A63rp92wJ/RKhJxd6zaXK5gTAF2hE0Nx3fjsCxwMdo5tEWoyw3Ej4fpyvsjuwB6iMoumUhocvRycA1tB8Ksy13EZ4JdQL1dt5fNFn+k+h+LXOC6Z4NXamh6+HuIHOA2tm6254IvBP4Cd3t6P0QcC7wcuJvCS0j1NjeDpxPdwcoTC2bgH8G3kqYjEbdFhWgCyb/EGMvwg14dd9jCJezxxIuo7s4Bn4zYUKWcwldiK4iNJhtS2iwPGhyOZgwq9GT6WY5Bj1EqA1/k9AYdEe7u6MIdxAabyuL/UXdu8adVXOmWqC73gg1rstUI5DzC4y3u4j73qMPlH0aK4pyWUy4B3ca3e7O0/Wl1JFafZY9QJ0/sH/GoUN5F5bNk5/RyThXQF/dTeYAdabzfnss3R8J1eSylumRQM7Y3n/ZA7Tro01Un10I3Y6+AjxA+2HW1JKry5W67x4yB+iBjRVFXbIcOA74LPH3icZh+QXwAezUXrrsAep8gxqcju8XtB9+KcvURNIn4cTDmhbbQyX6wPNg00yHEILoYrrbeX+CMOx1qquR89pqmNj5X6MPwkMbK4rG0d6Eae7Oo/1hlZt4eKu5Qyc1n+wB+h8aK4rG3QrgJcDZNNcI9Vvgc8CLCDPLSzGyB+h/bKwo6pPBZ0LFPjp2ruV2Qm33JKxlanRRcyukjIV/MnBFXXurIi0EngL8CfB7hBm+9mDux8VsIDzU7UbgSuBywuX5dcQfw9Js7iei61rK8LOFCetIg7YQJhC5ZMi/LWA6SB9BmJhjA+HSaksje6eSRV3BGKDqmglCXzwG/is1JSpAU8LQAJUk0sLQWWck9VX2GmjXJ7OVpEZYA5WkadZAJakJBqgkTbMGKkmJDFBJaoIBKknTstdAbYWXJKyBStIg74FKUhMMUElKlBKg29W+F5LUDdkv4ZclrCNJ48AAlaQmpATo8tr3QpK6wRqoJCXKHqDWQCUJa6CSNCh7DXSnhHUkaRxEPSI7JUD3SFhHkrpuCQ3UQPeIfRNJGgMvSVlpImHZuYadlaSuWABcRWQWpj7j/XGj7q0kdcjzgENiV0oN0KMS15OkLvrL1BVTLuFXAYtG219J6oT/RFoOTjDCin/eQMEkKbcf0EKA/gantpM03v6Q9AwcKUAngDfnL58kZbEtCS3v1Biga4DH5y6lJGXwPkbLv+gAXTPk735Iemu+JLXh94GNbJ1nDwz5u9oC9GPAZUP+fmXeskpSbR4J3MTWOfZvwFuG/H1tAfpBYH/gvhl/vwE4ImOBJakOi4DvsXW23QDsDrxmyL/VFqAfmtyJFw35t9uBx2YqtCSNagHwSbbOrjuAAyZf89oh/15rDXTKqUP+/efAipoLLUl1+BuGt+s8deA1rx/ymiwBuhA4d8hrrgB2q7HQkjSqd7B1Vm0EjpnxupVDXpclQAF2AH425HVXA3vWUGhJGsUC4H+xdUZtAV425PVvGvLabAEKsA+weshrVxO6CkhSG5YAZzI8PF81yzpvHvL6rAEKsC9w45DXryfcU5CkJu0B/Jjh4TlXJr11yDrZA3Rqh4f1EZ0g3Cvdp3LRJSnds4Gb2TqHNgAvn2fdk4asV1uA/u953nw58KVZ1l0DvAtYOl/pJSnBDoTBPlvYOn/uAv5zhW28bci6jQXolFcDD82yjdXAGycLK0mjWgy8gjBD3LDMuZLpfp7zGdZa33iAQphk5IdzbOte4P0kTKMvSYTZlF4GXMvwjNlEmDBkScQ23zXLthoPUAhdCF4MXD/Pdq8G3kNotd8l8j0klWVnwqX2LcyeKVcSZpqP9e45trnVsniUUlQwAfwj8FVCt4F3Egbyz/QEQvK/a/L/HyQMDb0XWEu4HXDv5H/XD6x3z4ztPED41ZmyFlg38P+bJl8zaOY25rJucpt12AzcX9O2SvcIxu9R28uJqxl1wRLCfrfpGYSGoNn242ZCjnyWcC80VtTMcrkDdMoG4CPAZwj9rN5AOOhns/3kIklV3EG4Qj6dUNFKFRWgsfN4TkS+fqb7CVXkvQgNSbeOuD1JZbsDOIXwqPX3M1p4QuYArcuDwGmE2ZteSWg9k6Sqbgf+ijCI52Tqux3WyUv42awHPkG4X/EyQgdYSZrLj4BP8fD2jbqMVYBOWQ98fHKRpLZ0+h6oJHXZWNwDlaQuMkAlKZEBKkmJDFBJSmSASlKiqCHBtsJL0jRroJKUyACVpEQGqCQlMkAlKZEBKkmJHAsvSYmsgUpSIgNUkhIZoJKUyACVpEQGqCQlyhqg4/bsbUmKYYBKUiIv4SUpkTVQSUpkgEpSIgNUkhJFZeLiyI13IUAXAI8F9gceAWxDKPR6YA1wE3AtsLmtHZQ0tqLbhSYilg/Xtpvx9gFOB+4dsl8zl/uBz0+uI0lVXUhcJka9+LTmyvEwf0y14Jy53As8u4X9lTSeLiIiY8bhHugLgHOAnRLW3Qn4NnB8rXskqa961Q/0GYRL8VH2c1vgC8BzatkjSX3Wm1b4nYCzgaU1bGsbQojuXsO2JPVXbwL0FOBRNW5vV+D9NW5PUv9EZVxXA3Qf4LUZtvtnhO5PkjRML2qgL2b+PqpXAa8BDptcXgusmmedRcCfj7pzknoraz/Qv69tN+d25Rz78AAhLIcVdCHweuDBOda/PPO+Sxpfl5OxH+gZDRRgCbBplvf/DfA7FbbxpMnXDtvGJkLLvCTNdAUZ+4HGDv1MsS/hUnum24BnAT+tsI0rJl/72yH/tmjyPSRppqz3QJsI0GEd5jcCxwDXR2znesIIpo1D/m3HhP2S1H9jH6D3Dvm79wGXJWzrUuDUIX+/IWFbkvovayPSl2vbzdntBGwZeM97gB1G2N6OPHwc/RZCn1BJmukaxvwe6H2Ee5hTvktoeU91/+Q2plwH3DnC9iT1V9ZL+G0iX5/qOwN//lUN2xvcxiU1bE9SP439PVCATxImSIZ6Rg49fuDPX61he5L6Kes90O/XtpvzO23yPe9jtAlFljHdsf5qhneRkiSAG8nYkf7C5srBLsANk+/7yhG28zqmG4+eW8N+Seqvm8gYoD9qrhwAHEpoBPoVaX03dwJuJuz7B2rcL0n99GsyBui/NFeOf/cHhEvwlGGkZxL2+0y6P3m0pPZNVbiyBOilzZXjYZ5C6Hp0dMQ6Lyc8pXNllj2S1Ee3kjFAf95cObZyAGFW+So1yScDn8CnckqK81syBmjMWPQ2rWh7BySNpTuIyMTY+4Lb1befWd3T9g5IGktZO9Ivi3y9JI0TA1SSEmUfC9/UcE5JalrWAAVroZL6ywCVpETZA3SUyY0lqcuyB6izuUvqKwNUkhJlD9B9E9aRpK7bhgYC9LCEdSSp696UslLMWPgJwgPebEiS1Cd7M/3kimyTiUwtb2ymTJLUiPOIz8EHIdQoY1e8G3hkI8WSpLyOI60i+QGA9yau/LkmSiZJGe37RcYNAAACzElEQVRI/GM8JoCHgN0hPDfozoQNTAAvzV8+ScrmLNKy78ODG3lL4kYeBJ6UsXCSlMt/JS331gKPHtzQUsKTL1M2djvw+GxFlKT6/Q5h4vWUzPu7YRv8i8SNTQC/BPaqvYiSVL+DiXx0x8CyBnjMsI0uBP41caMTwGqsiUrqtmcBt5Gec6fMtfHfBzaPsPHbgGfWVFBJqssi4G3AJtLz7WZg+/ne6IwR3mAC2EAYEpUyTFSS6vYM4KeMlmsTwDFV3mw5cHUNb/Zj4NARCi1JozgA+BKwhdHz7OMxb/xEQkfRUd90M/B14I+AAwnhLEk57Q18CtjI6Bk2AaxiluxaMMdOvAw4c+SibG0tsI7Qh3QjcD8haAef5T71b4NmPut9A6FFbFCV9TZOvi7GesIPSoypcsZ4aPK9mnQv4SDpmgnCvklVPQp4O/BKYNuatnk78FTgxmH/OFeAArwbOLmmHZHUDWsIFZC+WQ4sqXF764AjgX+Z7QXzBSjA6cDr6tojSRoDG4DjgW/O9aJFFTb0fULHUYdsSirBesIMTefP98IqATpBmCtve+Bpo+2XJHXafYTw/G6VF1cJ0CnfJ9w7ORL7eErqnxuAo4D/W3WFKvdAZzoC+CKTc+FJUg98D3gJYWrPylJqkhcR7odekLCuJHXJWmAloa96VHhC3CX8oAcJM9JfBzwdO8hLGj8XAP8F+FbqBka9l/kF4CDgI4Qkl6SuuxY4FngOcM0oG0q5Bzqb3YG3EkYBWCOV1DUXAR8idE/aUscG6wzQKTsBLwROIMyCkuM9JGkumwlzFP8CuBD4BnB93W+SO9x2I/Qf3ZFwv3UhIWAhjFVdNvnnHYDFk39eCmw3xzbn+/ftJl8zm2VUHyc7uF91m68co1hM2PdcVmTcds7PXMHM+SFyrxcz38LgHBez/XlqbooNhLk07p98j6k/30MIy+zDVf8/pbd/UgBL4LEAAAAASUVORK5CYII=;fontStyle=1;fontFamily=Courier New;" vertex="1" parent="qmRgz9lJUut0-xWqPHnc-25">
          <mxGeometry x="229" y="40" width="61.65" height="80" as="geometry" />
        </mxCell>
      </root>
    </mxGraphModel>
  </diagram>
</mxfile>
